<svg width="20" height="20" viewBox="0 0 20 20" fill="none" xmlns="http://www.w3.org/2000/svg">
<path d="M3.33337 15.7087H16.6664C16.7352 15.7087 16.7914 15.7649 16.7914 15.8337C16.7912 15.9024 16.7351 15.9587 16.6664 15.9587H3.33337C3.26463 15.9587 3.20855 15.9024 3.20837 15.8337C3.20837 15.7649 3.26452 15.7087 3.33337 15.7087ZM3.33337 9.87476H16.6664C16.7351 9.87476 16.7912 9.93105 16.7914 9.99976C16.7914 10.0686 16.7352 10.1248 16.6664 10.1248H3.33337C3.26452 10.1248 3.20837 10.0686 3.20837 9.99976C3.20855 9.93105 3.26462 9.87476 3.33337 9.87476ZM3.33337 4.04175H16.6664C16.7352 4.04175 16.7914 4.09789 16.7914 4.16675C16.7914 4.23561 16.7352 4.29175 16.6664 4.29175H3.33337C3.26452 4.29175 3.20837 4.23561 3.20837 4.16675C3.20837 4.09789 3.26452 4.04175 3.33337 4.04175Z" fill="currentColor" stroke="currentColor"/>
</svg>
