<svg width="16" height="16" viewBox="0 0 16 16" fill="none" xmlns="http://www.w3.org/2000/svg">
<path d="M12.3675 3.08734C12.43 3.02479 12.5305 3.02479 12.593 3.08734C12.6399 3.13429 12.6517 3.20255 12.6282 3.26019L12.593 3.31293L8.45242 7.45355L8.22684 7.68011L8.45242 7.90668L12.593 12.0473C12.6555 12.1099 12.6556 12.2104 12.593 12.2729C12.5305 12.3354 12.43 12.3353 12.3675 12.2729L8.22684 8.13226L8.00027 7.90668L7.77371 8.13226L3.63309 12.2729C3.57058 12.3354 3.47006 12.3353 3.4075 12.2729C3.34495 12.2103 3.34495 12.1099 3.4075 12.0473L7.54715 7.90668L7.77371 7.68011L7.54715 7.45355L3.4075 3.31293C3.34495 3.25037 3.34495 3.14989 3.4075 3.08734C3.45448 3.04036 3.52265 3.0286 3.58035 3.05219L3.63309 3.08734L7.77371 7.22699L8.00027 7.45355L8.22684 7.22699L12.3675 3.08734Z" fill="currentColor" stroke="currentColor" stroke-width="0.64"/>
</svg>
