<svg width="16" height="16" viewBox="0 0 16 16" fill="none" xmlns="http://www.w3.org/2000/svg">
<path d="M7.96354 1.16626H8.03678C9.27111 1.16626 10.2152 1.1674 10.9469 1.26196C11.6911 1.35881 12.2411 1.55495 12.6676 1.96606H12.6686C13.0426 2.32624 13.2461 2.77899 13.3581 3.36841L13.4001 3.62915C13.4988 4.33555 13.4997 5.24571 13.4997 6.43286V12.0325C13.4997 12.7734 13.4994 13.3507 13.4342 13.7756C13.3754 14.1584 13.2581 14.457 13.0104 14.6428L12.8962 14.7151C12.5914 14.8779 12.2363 14.8555 11.8864 14.7493C11.5356 14.6428 11.1657 14.4453 10.8092 14.22V14.219C10.4516 13.993 10.0979 13.7342 9.78288 13.5012L9.7819 13.5002L9.74479 13.4739H9.74577C9.519 13.306 9.3145 13.1541 9.13932 13.0364L8.97428 12.9309C8.71292 12.773 8.52877 12.6634 8.37467 12.5901H8.3737C8.25964 12.5364 8.16832 12.5059 8.08366 12.4944L7.99967 12.4895C7.88994 12.4896 7.77874 12.5185 7.62663 12.5901H7.62565C7.5486 12.6267 7.46384 12.6724 7.36588 12.7288L7.02604 12.9309C6.82009 13.0549 6.55735 13.2495 6.25553 13.4729L6.21842 13.5002L6.21745 13.5012C5.90246 13.7341 5.54863 13.9931 5.19108 14.219L5.1901 14.22C4.83455 14.4451 4.46388 14.6428 4.11295 14.7493C3.76321 14.8554 3.40882 14.8778 3.10416 14.7151C2.77686 14.54 2.63333 14.2131 2.56608 13.7756C2.5009 13.35 2.49967 12.772 2.49967 12.0305V6.43286C2.49967 5.39389 2.50074 4.56721 2.56705 3.90356L2.59928 3.62915C2.69914 2.90993 2.90429 2.37763 3.3317 1.96606C3.75896 1.55476 4.30855 1.35784 5.05241 1.26099C5.78418 1.16638 6.72898 1.16626 7.96354 1.16626ZM2.83952 5.16138C2.83347 5.54851 2.83366 5.98333 2.83366 6.47192V11.9875C2.83366 12.7612 2.83399 13.3224 2.89616 13.7258C2.92696 13.9264 2.97073 14.0756 3.0319 14.1877C3.10264 14.3174 3.18784 14.3819 3.25846 14.4202L3.26139 14.4221C3.45316 14.5235 3.70468 14.5254 4.01725 14.4299L4.01627 14.429C4.3247 14.3354 4.66534 14.1568 5.01237 13.9377C5.35876 13.719 5.70336 13.467 6.0192 13.2336L6.02018 13.2327L6.07877 13.1887C6.36946 12.9739 6.63934 12.7751 6.85416 12.6458L6.85807 12.6428L6.87272 12.634C7.11968 12.486 7.31548 12.3683 7.48502 12.2883C7.6619 12.2048 7.82309 12.1556 7.99967 12.1555C8.17638 12.1555 8.33832 12.2048 8.5153 12.2883C8.60015 12.3284 8.69156 12.3778 8.79264 12.4358L9.1276 12.634L9.14225 12.6428L9.14616 12.6458C9.25357 12.7105 9.37492 12.7922 9.50553 12.885L9.92155 13.1887L9.98014 13.2327L9.98112 13.2336C10.2969 13.467 10.6407 13.7191 10.987 13.9377C11.2474 14.1021 11.5045 14.2446 11.7467 14.345L11.9831 14.4299C12.2953 14.5252 12.5463 14.5232 12.738 14.4221L12.7419 14.4202C12.8124 14.3819 12.8978 14.3173 12.9684 14.1877C13.0296 14.0756 13.0734 13.9263 13.1042 13.7258C13.1663 13.3224 13.1667 12.7611 13.1667 11.9875V6.47192C13.1667 5.98333 13.1669 5.54851 13.1608 5.16138L13.1559 4.83325H2.8444L2.83952 5.16138ZM7.99967 1.50024C6.73875 1.50024 5.80851 1.50028 5.09538 1.59302C4.38661 1.68486 3.91718 1.86485 3.56315 2.2063C3.21051 2.54641 3.02421 2.9958 2.92936 3.67603C2.90888 3.82224 2.89295 3.97769 2.88053 4.14185L2.85319 4.50024H13.1471L13.1198 4.14185C13.1074 3.9777 13.0914 3.82223 13.071 3.67603C12.9761 2.9959 12.7897 2.54639 12.4372 2.2063C12.1274 1.90756 11.7292 1.73176 11.1598 1.6311L10.9049 1.59302C10.1917 1.50023 9.26095 1.50024 7.99967 1.50024Z" fill="currentColor" stroke="currentColor" stroke-width="0.666667"/>
</svg>
