<svg width="20" height="20" viewBox="0 0 20 20" fill="none" xmlns="http://www.w3.org/2000/svg">
<path d="M10.0003 3.04135C10.1611 3.04153 10.2913 3.17255 10.2913 3.33334V9.70834H16.6663C16.8272 9.70834 16.9583 9.83943 16.9583 10.0003C16.9582 10.1611 16.8271 10.2914 16.6663 10.2914H10.2913V16.6664C10.2913 16.8271 10.1611 16.9582 10.0003 16.9583C9.83942 16.9583 9.70834 16.8273 9.70834 16.6664V10.2914H3.33334C3.17254 10.2914 3.04152 10.1611 3.04134 10.0003C3.04134 9.83943 3.17243 9.70834 3.33334 9.70834H9.70834V3.33334C9.70834 3.17244 9.83942 3.04135 10.0003 3.04135Z" fill="currentColor" stroke="currentColor" stroke-width="0.666667"/>
</svg>
