<svg width="24" height="24" viewBox="0 0 24 24" fill="none" xmlns="http://www.w3.org/2000/svg">
<path d="M11.9453 1.58301H12.0547C13.9022 1.58301 15.3316 1.58393 16.4424 1.72754C17.5757 1.87507 18.4411 2.17745 19.1172 2.8291H19.1182C19.7116 3.40058 20.0281 4.11512 20.2002 5.02051L20.2656 5.4209C20.4157 6.49463 20.417 7.87327 20.417 9.64941V18.0488C20.417 19.1553 20.4157 20.0365 20.3154 20.6895C20.2183 21.321 20.012 21.8502 19.5244 22.1611L19.4229 22.2197C18.9099 22.4938 18.3263 22.4493 17.7822 22.2842C17.2347 22.1181 16.6646 21.8118 16.125 21.4707V21.4697C15.5827 21.1271 15.0476 20.735 14.5752 20.3857L14.5742 20.3848L14.5186 20.3447H14.5195C14.0632 20.0069 13.6749 19.7202 13.374 19.5391C12.9802 19.3012 12.7121 19.1417 12.4902 19.0361L12.4893 19.0352L12.3398 18.9717C12.2031 18.9196 12.0988 18.9004 12 18.9004C11.8682 18.9004 11.726 18.9338 11.5107 19.0352L11.5098 19.0361C11.2877 19.1417 11.0192 19.301 10.625 19.5391C10.3241 19.7202 9.93682 20.0069 9.48047 20.3447L9.42578 20.3848L9.4248 20.3857C8.9524 20.735 8.41732 21.1271 7.875 21.4697V21.4707C7.33668 21.8116 6.76547 22.118 6.21777 22.2842C5.74171 22.4287 5.23523 22.4814 4.77246 22.3086L4.57715 22.2197C4.08651 21.9572 3.85023 21.4984 3.72949 20.9365L3.68457 20.6895C3.58433 20.0355 3.58301 19.1533 3.58301 18.0459V9.64941C3.58301 8.09511 3.58387 6.8453 3.68457 5.83789L3.73438 5.4209C3.88689 4.32239 4.20349 3.48232 4.88184 2.8291C5.55911 2.17711 6.42437 1.87506 7.55762 1.72754C8.66839 1.58393 10.0978 1.58301 11.9453 1.58301ZM4.42578 7.74512C4.41674 8.32417 4.41699 8.97489 4.41699 9.70801V17.9814C4.41699 19.1479 4.41798 19.974 4.50879 20.5635C4.5536 20.8553 4.61566 21.0579 4.69434 21.2021C4.78253 21.3637 4.88422 21.4396 4.9668 21.4844L4.9707 21.4854C5.20321 21.6081 5.52856 21.6216 5.97559 21.4854L5.97656 21.4863C6.41801 21.3525 6.91363 21.0913 7.42969 20.7656C7.94337 20.4412 8.45457 20.0662 8.92871 19.7158H8.92969L9.01953 19.6494C9.45317 19.329 9.86485 19.0242 10.1953 18.8252L10.1992 18.8232L10.2275 18.8057L10.2266 18.8047C10.5008 18.6403 10.7388 18.4982 10.9512 18.3848L11.1562 18.2812C11.4349 18.1497 11.702 18.0674 12 18.0674C12.2234 18.0674 12.4293 18.1138 12.6357 18.1924L12.8438 18.2812C13.1062 18.405 13.4069 18.5855 13.7725 18.8047V18.8057L13.8008 18.8232L13.8047 18.8252C13.9699 18.9247 14.1561 19.0505 14.3545 19.1914L14.9805 19.6494L15.0703 19.7158H15.0713C15.5454 20.0662 16.0566 20.4412 16.5703 20.7656C17.0864 21.0913 17.582 21.3525 18.0234 21.4863V21.4854C18.4709 21.6219 18.7966 21.6082 19.0293 21.4854L19.0332 21.4844C19.1158 21.4396 19.2175 21.3637 19.3057 21.2021C19.3843 21.0579 19.4464 20.8553 19.4912 20.5635C19.582 19.974 19.583 19.1479 19.583 17.9814V9.70801C19.583 8.97489 19.5833 8.32417 19.5742 7.74512L19.5693 7.41699H4.43066L4.42578 7.74512ZM12 2.41699C10.3406 2.41699 9.07455 2.41667 8.07617 2.50879L7.66406 2.55469C6.61862 2.69016 5.95558 2.95183 5.46094 3.42871C4.9688 3.90319 4.69813 4.53638 4.55859 5.53711C4.52846 5.75224 4.50474 5.98123 4.48633 6.22461L4.45996 6.58301H19.54L19.5137 6.22461C19.4953 5.98123 19.4715 5.75224 19.4414 5.53711C19.3019 4.53638 19.0312 3.90319 18.5391 3.42871C18.1063 3.01151 17.5447 2.75875 16.7109 2.61133L16.3359 2.55469C15.2794 2.41724 13.8966 2.41699 12 2.41699Z" fill="currentColor" stroke="currentColor" stroke-width="0.666667"/>
</svg>
