<svg width="24" height="24" viewBox="0 0 24 24" fill="none" xmlns="http://www.w3.org/2000/svg">
<path d="M18.915 6.26562C19.0443 6.21773 19.1885 6.28415 19.2363 6.41309C19.2842 6.54231 19.2178 6.68653 19.0889 6.73438C17.8396 7.19797 16.5742 8.12595 15.3935 9.21875C14.2065 10.3175 13.0736 11.6126 12.0928 12.8467C10.136 15.3087 8.75561 17.5644 8.71679 17.6279L8.71581 17.6299C8.67027 17.7048 8.58882 17.75 8.50195 17.75H8.49999C8.40906 17.7486 8.32855 17.6998 8.28613 17.625L8.28515 17.624L7.96972 17.0938C6.41909 14.59 5.28194 14.2901 5.04003 14.2715L4.96386 14.2656L4.93261 14.2725C4.91889 14.2679 4.88624 14.2537 4.84179 14.207C4.78577 14.1481 4.76459 14.0891 4.75585 14.0469L4.74999 14.0029C4.74987 14.0042 4.7492 14.0061 4.74902 14.0078V14.0107H4.74804L4.74999 13.9971L4.75097 13.9883C4.75084 13.99 4.75097 13.9912 4.75097 13.9912C4.75097 13.9912 4.7511 13.9878 4.75195 13.9824C4.75372 13.9713 4.75687 13.9527 4.76366 13.9307C4.77859 13.8825 4.80133 13.8407 4.82909 13.8135C4.84822 13.7948 4.88512 13.7743 4.93945 13.7607C4.96375 13.7547 4.98542 13.7523 4.99902 13.751C5.00157 13.7507 5.00411 13.7501 5.00585 13.75C5.11833 13.7512 6.37822 13.8138 8.0957 16.3682L8.51562 16.9922L8.9287 16.3633C9.74071 15.1262 11.242 12.9617 13.0518 10.9189C14.8757 8.86017 16.9552 6.99292 18.915 6.26562Z" fill="currentColor" stroke="currentColor"/>
</svg>
