<svg width="24" height="24" viewBox="0 0 24 24" fill="none" xmlns="http://www.w3.org/2000/svg">
<path d="M12 1.75C17.6519 1.75 22.25 6.34814 22.25 12C22.25 17.6519 17.6519 22.25 12 22.25C6.34814 22.25 1.75 17.6519 1.75 12C1.75 6.34814 6.34814 1.75 12 1.75ZM12 2.25C6.62386 2.25 2.25 6.62386 2.25 12C2.25 17.3761 6.62386 21.75 12 21.75C17.3761 21.75 21.75 17.3761 21.75 12C21.75 6.62386 17.3761 2.25 12 2.25ZM15.8818 7.78027C16.0016 7.71495 16.1539 7.75844 16.2207 7.87988C16.2781 7.98462 16.2518 8.1148 16.1631 8.19043L16.1211 8.21973C14.535 9.08704 13.1647 10.8294 12.209 12.2959C11.4836 13.4089 10.9672 14.4106 10.7471 14.8574L10.6289 15.1035C10.5904 15.1874 10.5071 15.2446 10.4131 15.25H10.4004C10.3125 15.25 10.2307 15.204 10.1865 15.1299L10.1855 15.1279C9.79729 14.4795 9.21494 13.9412 8.75098 13.5742C8.28146 13.2029 7.89814 12.9795 7.87598 12.9668C7.75719 12.898 7.7159 12.7456 7.78418 12.626L7.7832 12.625C7.85274 12.5053 8.00586 12.4651 8.12402 12.5322C8.17137 12.5594 9.09515 13.0953 9.90234 13.9482L10.3779 14.4512L10.7061 13.8428C11.1554 13.0099 11.8636 11.8091 12.7598 10.6543C13.6605 9.49357 14.7255 8.41213 15.8809 7.78027H15.8818Z" fill="currentColor" stroke="currentColor"/>
</svg>
