<svg width="24" height="24" viewBox="0 0 24 24" fill="none" xmlns="http://www.w3.org/2000/svg">
<path d="M16 1.75C16.1339 1.75 16.25 1.86614 16.25 2V3.79004L16.7129 3.8252C18.3222 3.94655 19.2717 4.25802 20.0068 4.99316C20.9649 5.95119 21.1959 7.25446 21.2393 9.88379L21.2402 9.92285L21.2471 9.95996C21.2493 9.97289 21.25 9.98628 21.25 10C21.25 10.0109 21.2497 10.0223 21.248 10.0342L21.2422 10.0713L21.2432 10.1094C21.2503 10.683 21.25 11.3096 21.25 12V14C21.25 16.0052 21.2491 17.4545 21.082 18.5781C20.9182 19.6795 20.6022 20.4115 20.0068 21.0068C19.4115 21.6022 18.6795 21.9182 17.5781 22.082C16.4545 22.2491 15.0052 22.25 13 22.25H11C8.99989 22.25 7.55067 22.2491 6.42578 22.082C5.32256 21.9182 4.58832 21.602 3.99316 21.0068C3.39779 20.4115 3.08175 19.6795 2.91797 18.5781C2.75093 17.4545 2.75 16.0052 2.75 14V12C2.75 11.3096 2.74965 10.683 2.75684 10.1094L2.75781 10.0713L2.75195 10.0332C2.75042 10.0223 2.75 10.0112 2.75 10C2.75 9.98629 2.75073 9.97282 2.75293 9.95996L2.75977 9.92285L2.76074 9.88379C2.80406 7.25448 3.03514 5.9512 3.99316 4.99316C4.72918 4.25716 5.67617 3.94628 7.28711 3.8252L7.75 3.79004V2C7.75 1.86614 7.86614 1.75 8 1.75C8.13386 1.75 8.25 1.86614 8.25 2V3.77246L8.75977 3.7627C9.42535 3.75007 10.1659 3.75 11 3.75H13C13.8336 3.75 14.5743 3.74999 15.2402 3.7627L15.75 3.77246V2C15.75 1.86614 15.8661 1.75 16 1.75ZM3.25195 10.748C3.25011 11.1397 3.25 11.5569 3.25 12V14C3.25 15.7673 3.24908 17.1402 3.37207 18.1875C3.49528 19.2364 3.75207 20.0587 4.34668 20.6533C4.94136 21.248 5.7644 21.5047 6.81348 21.6279C7.86079 21.7509 9.23316 21.75 11 21.75H13.001C14.7679 21.75 16.1404 21.7509 17.1875 21.6279C18.2363 21.5047 19.0587 21.248 19.6533 20.6533C20.2479 20.0587 20.5047 19.2364 20.6279 18.1875C20.7509 17.1402 20.75 15.7673 20.75 14V12C20.75 11.5569 20.7499 11.1397 20.748 10.748L20.7461 10.25H3.25391L3.25195 10.748ZM9 13.25H9.69043C9.97908 13.2502 10.2498 13.5009 10.25 13.8496V18.5C10.25 18.6339 10.1339 18.75 10 18.75C9.86614 18.75 9.75 18.6339 9.75 18.5V13.75H9C8.86614 13.75 8.75 13.6339 8.75 13.5C8.75 13.3661 8.86614 13.25 9 13.25ZM13.0098 13.25H15.21C15.5138 13.25 15.7597 13.496 15.7598 13.7998C15.7595 13.8028 15.7587 13.8085 15.7578 13.8164C15.7559 13.8331 15.753 13.8542 15.749 13.8779C15.7417 13.9221 15.7318 13.964 15.7256 13.9902L14.2441 18.5762L14.2432 18.5811C14.212 18.6808 14.1133 18.75 14.0098 18.75H14C13.9812 18.75 13.9716 18.7488 13.9668 18.748C13.9626 18.7473 13.9561 18.7462 13.9453 18.7422L13.9365 18.7383L13.9277 18.7354C13.7895 18.689 13.7255 18.5452 13.7646 18.4277L13.7656 18.4238L15.0654 14.4043L15.2773 13.75H13.0098C12.876 13.7499 12.7598 13.6338 12.7598 13.5C12.7598 13.3662 12.876 13.2501 13.0098 13.25ZM15.75 4.27246L15.2598 4.2627C14.5956 4.24985 13.8442 4.25 13 4.25H10.999C10.155 4.25 9.4042 4.24986 8.74023 4.2627L8.25 4.27246V6C8.25 6.13386 8.13386 6.25 8 6.25C7.86614 6.25 7.75 6.13386 7.75 6V4.28711L7.20801 4.33301C5.96302 4.43789 5.01119 4.68217 4.34668 5.34668C3.52432 6.16906 3.33547 7.44703 3.27637 9.2334L3.25879 9.75H20.7412L20.7246 9.2334C20.6655 7.44697 20.4756 6.16906 19.6533 5.34668C18.9888 4.68219 18.037 4.43789 16.792 4.33301L16.25 4.28711V6C16.25 6.13386 16.1339 6.25 16 6.25C15.8661 6.25 15.75 6.13386 15.75 6V4.27246Z" fill="currentColor" stroke="currentColor"/>
</svg>
