<svg width="20" height="20" viewBox="0 0 20 20" fill="none" xmlns="http://www.w3.org/2000/svg">
<path d="M9.95443 1.37476H10.0462C11.3943 1.37476 12.471 1.37594 13.3363 1.45581L13.6947 1.49487C14.6334 1.61706 15.3416 1.86583 15.8929 2.39722V2.39819C16.3765 2.86394 16.6376 3.44687 16.7796 4.19409L16.8333 4.52515C16.9577 5.41518 16.9583 6.55919 16.9583 8.04077V15.0408C16.9583 15.9646 16.9571 16.6942 16.8744 17.2332C16.7996 17.7191 16.648 18.1176 16.3138 18.3689L16.1595 18.4675C15.8019 18.6587 15.398 18.6575 15.0033 18.5632L14.8343 18.5173C14.3851 18.381 13.9153 18.1287 13.4671 17.8455V17.8445C13.0172 17.5602 12.5727 17.2352 12.179 16.9441L12.1781 16.9431L12.1312 16.9089C11.7525 16.6286 11.4284 16.3876 11.1751 16.2351C10.8471 16.037 10.6201 15.9027 10.432 15.8132L10.431 15.8123C10.2476 15.7259 10.121 15.6951 10.0003 15.6951C9.8795 15.6951 9.75243 15.7257 9.56869 15.8123L9.56771 15.8132C9.47367 15.8579 9.3704 15.9145 9.24935 15.9841L8.82552 16.2351C8.57216 16.3877 8.24743 16.6284 7.86849 16.9089L7.82259 16.9431L7.82064 16.9441C7.42694 17.2352 6.98245 17.5602 6.53255 17.8445V17.8455C6.0856 18.1285 5.61469 18.381 5.16537 18.5173C4.71845 18.653 4.24895 18.686 3.84017 18.4675C3.39645 18.2299 3.21074 17.7884 3.12533 17.2332C3.04259 16.6934 3.04134 15.9632 3.04134 15.0388V8.04077C3.04134 6.55919 3.04196 5.41518 3.16634 4.52515H3.16732C3.29349 3.61642 3.55406 2.93055 4.10677 2.39819C4.65905 1.86653 5.36643 1.61608 6.30502 1.4939C7.22628 1.37479 8.41337 1.37476 9.95443 1.37476ZM3.63216 6.45288C3.62462 6.93589 3.62533 7.47887 3.62533 8.0896V14.9841C3.62533 15.9545 3.62595 16.6487 3.70248 17.1453C3.74027 17.3912 3.79277 17.567 3.86263 17.6951C3.94204 17.8407 4.03606 17.9104 4.11263 17.9519L4.11556 17.9539C4.32784 18.066 4.61713 18.0739 4.9974 17.9578L4.99642 17.9568C5.37127 17.8431 5.78961 17.6246 6.22103 17.3523C6.65109 17.0807 7.07895 16.7663 7.47396 16.4744H7.47494L7.54916 16.4177C7.91105 16.1503 8.25228 15.9002 8.52474 15.7361L8.52865 15.7332L8.5472 15.7205L8.54818 15.7214C8.77871 15.5832 8.97597 15.4637 9.1517 15.3699L9.32064 15.2849C9.54846 15.1774 9.76296 15.1121 10.0003 15.1121C10.2375 15.1121 10.4514 15.1775 10.679 15.2849C10.8954 15.387 11.1445 15.5364 11.4515 15.7205L11.472 15.7332L11.4759 15.7361C11.7482 15.9002 12.0889 16.1505 12.4505 16.4177V16.4187L12.5247 16.4744H12.5257C12.9207 16.7663 13.3486 17.0807 13.7786 17.3523C14.2097 17.6243 14.6277 17.843 15.0023 17.9568V17.9578C15.3825 18.0739 15.6718 18.066 15.8841 17.9539L15.887 17.9519C15.9637 17.9104 16.0576 17.8408 16.137 17.6951C16.2069 17.5669 16.2604 17.3913 16.2982 17.1453C16.3747 16.6487 16.3753 15.9545 16.3753 14.9841V8.0896C16.3753 7.47887 16.3751 6.93589 16.3675 6.45288L16.3626 6.12476H3.63802L3.63216 6.45288ZM10.0003 1.95874C8.42137 1.95874 7.26414 1.95885 6.37923 2.07397C5.50245 2.18764 4.9363 2.40812 4.51205 2.81714C4.08964 3.22438 3.86169 3.76587 3.74447 4.6062C3.71914 4.78701 3.69935 4.9794 3.68392 5.18335L3.65658 5.54175H16.3441L16.3167 5.18335C16.3013 4.9794 16.2815 4.78701 16.2562 4.6062C16.139 3.76582 15.91 3.2244 15.4876 2.81714H15.4867C15.1155 2.45957 14.6362 2.24576 13.9349 2.12183L13.6204 2.07397C12.7356 1.95886 11.5791 1.95874 10.0003 1.95874Z" fill="currentColor" stroke="currentColor" stroke-width="0.666667"/>
</svg>
