<svg width="24" height="24" viewBox="0 0 24 24" fill="none" xmlns="http://www.w3.org/2000/svg">
<path d="M4 18.75H20C20.1379 18.75 20.25 18.8621 20.25 19C20.25 19.1379 20.1379 19.25 20 19.25H4C3.86214 19.25 3.75 19.1379 3.75 19C3.75 18.8621 3.86214 18.75 4 18.75ZM4 11.75H20C20.1379 11.75 20.25 11.8621 20.25 12C20.25 12.1379 20.1379 12.25 20 12.25H4C3.86214 12.25 3.75 12.1379 3.75 12C3.75 11.8621 3.86214 11.75 4 11.75ZM4 4.75H20C20.1379 4.75 20.25 4.86214 20.25 5C20.25 5.13786 20.1379 5.25 20 5.25H4C3.86214 5.25 3.75 5.13786 3.75 5C3.75 4.86214 3.86214 4.75 4 4.75Z" fill="currentColor" stroke="currentColor"/>
</svg>
