<svg width="20" height="20" viewBox="0 0 20 20" fill="none" xmlns="http://www.w3.org/2000/svg">
<path d="M14.7637 7.328C14.8597 7.19756 15.0432 7.16932 15.1729 7.26453C15.3018 7.35982 15.3295 7.54141 15.2354 7.67175C15.1285 7.81371 14.8159 8.22765 14.6338 8.46082C14.2659 8.93227 13.7612 9.56139 13.2139 10.1913C12.6684 10.8195 12.0747 11.4558 11.5303 11.9364V11.9374C11.2579 12.1781 10.9913 12.3854 10.7441 12.5341L10.7432 12.535C10.5038 12.6797 10.2456 12.7918 10 12.7919C9.75343 12.7919 9.49498 12.6795 9.25684 12.535L9.25586 12.5341L9.06641 12.412C8.87425 12.2795 8.67294 12.1175 8.46973 11.9374V11.9364C7.92526 11.4558 7.33163 10.8196 6.78613 10.1913H6.78516C6.23797 9.56155 5.73403 8.93219 5.36621 8.46082C5.18327 8.22678 4.87171 7.81342 4.76367 7.67078L4.76074 7.66687C4.67118 7.53824 4.69931 7.35997 4.82617 7.2655C4.95665 7.16979 5.13965 7.19748 5.23535 7.32703L5.2373 7.32996L5.8252 8.10144C6.09805 8.451 6.44682 8.88762 6.83105 9.34558L7.22559 9.80847C7.7652 10.4303 8.33945 11.0442 8.85547 11.5009H8.85645C9.11466 11.7282 9.35137 11.9107 9.55664 12.035L9.55762 12.036C9.65917 12.0969 9.74452 12.136 9.80859 12.161C9.8404 12.1734 9.86695 12.1822 9.8877 12.1884C9.89791 12.1914 9.90675 12.1943 9.91406 12.1962C9.91776 12.1971 9.92189 12.1974 9.9248 12.1981C9.92617 12.1984 9.92752 12.1988 9.92871 12.1991L9.93066 12.2001H9.93164L10.0029 12.2157L10.0742 12.1991H10.0771C10.0783 12.1988 10.0797 12.1984 10.0811 12.1981C10.0839 12.1974 10.0873 12.1961 10.0908 12.1952C10.0981 12.1933 10.107 12.1905 10.1172 12.1874C10.1376 12.1811 10.1641 12.1725 10.1953 12.16C10.2578 12.1351 10.341 12.0963 10.4414 12.036V12.035C10.6479 11.9106 10.8854 11.7282 11.1436 11.5009H11.1445C11.5315 11.1584 11.9503 10.7274 12.3633 10.2714L12.7734 9.80847C13.3118 9.18853 13.81 8.56749 14.1738 8.10144C14.3566 7.86726 14.6613 7.46351 14.7617 7.33093L14.7637 7.328Z" fill="currentColor" stroke="currentColor" stroke-width="0.666667"/>
</svg>
