<svg width="20" height="20" viewBox="0 0 20 20" fill="none" xmlns="http://www.w3.org/2000/svg">
<path d="M5.83333 3.04138C5.99753 3.04144 6.15479 3.11532 6.27864 3.1908L6.28059 3.19177C6.41427 3.27198 6.55519 3.38245 6.69563 3.50623C6.83521 3.62932 6.97986 3.77209 7.12434 3.92322L7.5511 4.39197C7.8262 4.70871 8.07951 5.02473 8.26497 5.26208V5.26306C8.35741 5.38192 8.43277 5.48025 8.4847 5.54919V5.55017L8.48665 5.55115L8.54524 5.63025L8.56184 5.65271L8.56868 5.66248L8.56966 5.66345C8.66213 5.79328 8.63456 5.97264 8.50716 6.06775C8.39312 6.1514 8.23889 6.14071 8.13802 6.05017L8.09798 6.00623L8.097 6.00427L8.08333 5.98572L8.07161 5.97009C8.06256 5.95878 8.04848 5.93958 8.02083 5.90271L8.01985 5.90076L7.80501 5.62244C7.62406 5.38993 7.37601 5.0818 7.1097 4.77478C6.97402 4.61792 6.83524 4.46354 6.69856 4.32166L6.12434 3.72595V16.6664C6.12434 16.8272 5.99415 16.9583 5.83333 16.9584C5.67242 16.9584 5.54134 16.8273 5.54134 16.6664V3.72595L4.96809 4.32166C4.83127 4.46368 4.69181 4.61775 4.55598 4.77478C4.28959 5.08191 4.04162 5.38991 3.86067 5.62244C3.7704 5.73802 3.69726 5.83433 3.6468 5.90076L3.64583 5.90271C3.61801 5.9398 3.60313 5.95877 3.59407 5.97009L3.58235 5.98572L3.56868 6.00427L3.56477 6.01013C3.46794 6.13644 3.28868 6.16273 3.16048 6.06873C3.04697 5.98488 3.01137 5.83411 3.06868 5.71033L3.09895 5.65955L3.18098 5.55017C3.23292 5.4812 3.30801 5.38127 3.40071 5.26208C3.49339 5.14346 3.60412 5.00603 3.72493 4.85779L4.11555 4.39197C4.39051 4.07586 4.69176 3.75247 4.97102 3.50623C5.11135 3.38255 5.25151 3.27196 5.38509 3.19177L5.38704 3.1908C5.51094 3.11528 5.66905 3.04138 5.83333 3.04138ZM14.1663 3.04138C14.3272 3.04138 14.4583 3.17247 14.4583 3.33337V16.2738L15.0316 15.6791C15.1 15.608 15.1688 15.5334 15.2376 15.4574L15.4437 15.225C15.7101 14.9179 15.9571 14.6088 16.138 14.3763C16.2282 14.2609 16.3025 14.1654 16.3529 14.099L16.3538 14.098C16.3816 14.061 16.3956 14.041 16.4046 14.0297L16.4115 14.0219L16.4163 14.014L16.431 13.9945L16.4388 13.9838C16.5366 13.8625 16.713 13.8386 16.8392 13.931C16.9682 14.0264 16.9962 14.2069 16.9036 14.3363C16.8869 14.3584 16.8435 14.4163 16.8167 14.4525C16.7649 14.5214 16.6897 14.6188 16.598 14.7367C16.5053 14.8553 16.3956 14.9937 16.2747 15.142L15.8841 15.6078C15.6091 15.924 15.308 16.2482 15.0286 16.4945C14.8884 16.6181 14.7481 16.7278 14.6146 16.808L14.6126 16.8099C14.4887 16.8854 14.3306 16.9584 14.1663 16.9584C14.0023 16.9583 13.8448 16.8854 13.721 16.8099L13.7191 16.808L13.514 16.6674C13.4447 16.6143 13.3742 16.5563 13.304 16.4945C13.0247 16.2482 12.7236 15.924 12.4486 15.6078C12.1731 15.2906 11.9192 14.9741 11.7337 14.7367H11.7347C11.6421 14.6176 11.5659 14.5195 11.514 14.4506L11.513 14.4486C11.4882 14.4161 11.4689 14.39 11.4544 14.3705V14.3695L11.4378 14.347L11.43 14.3373C11.337 14.2072 11.3644 14.0261 11.4925 13.931L11.4935 13.932C11.6232 13.8365 11.8055 13.8643 11.9017 13.9945L11.9281 14.0297C11.9371 14.041 11.951 14.0609 11.9788 14.098L11.9798 14.099L12.1947 14.3773C12.3754 14.6096 12.6229 14.9172 12.889 15.224V15.225C13.0255 15.3828 13.165 15.536 13.3011 15.6781L13.8743 16.2777V3.33337C13.8743 3.17252 14.0055 3.04146 14.1663 3.04138Z" fill="currentColor" stroke="currentColor" stroke-width="0.666667"/>
</svg>
