<svg width="24" height="23" viewBox="0 0 24 23" fill="none" xmlns="http://www.w3.org/2000/svg">
<path d="M12.2187 21.8012H12.0558C11.0496 21.7245 10.4171 21.0058 9.90916 20.4212L9.89862 20.4097C9.57662 20.0398 9.27378 19.6919 8.95083 19.5779C8.61158 19.4552 8.15062 19.4906 7.65995 19.528L7.63791 19.5299L7.60532 19.5328C6.74858 19.5999 5.68195 19.6823 4.86833 18.8687C4.07674 18.0771 4.14766 17.0172 4.2042 16.1528L4.20708 16.1087L4.20899 16.0876C4.24637 15.5874 4.28278 15.1168 4.15916 14.7862C4.03458 14.4604 3.68958 14.1537 3.31583 13.8279C2.73124 13.3199 2.01249 12.6874 1.93583 11.6812C1.84958 10.4833 2.65458 9.7741 3.31583 9.20868L3.32828 9.19814C3.6982 8.87614 4.04608 8.57235 4.16874 8.25035C4.29237 7.91973 4.25595 7.44918 4.21858 6.94893L4.21666 6.92785C4.14958 6.05577 4.07291 4.97285 4.87791 4.16785C5.70208 3.34368 6.78499 3.42993 7.64749 3.5066L7.73853 3.51331C8.20428 3.54973 8.64608 3.58518 8.96041 3.45868C9.28624 3.3341 9.59291 2.9891 9.91874 2.61535C10.4267 2.03077 11.0592 1.31202 12.0654 1.23535H12.3912C13.3965 1.31106 14.0252 2.02406 14.5312 2.59618L14.5475 2.61535L14.558 2.62781C14.88 2.99677 15.1838 3.34464 15.5058 3.45868C15.846 3.58135 16.307 3.54589 16.7977 3.50852L16.8187 3.5066C17.6812 3.42993 18.7642 3.34368 19.5883 4.16785C20.4125 5.0016 20.3262 6.07493 20.2496 6.93743L20.2429 7.02848C20.2064 7.49327 20.1719 7.93506 20.2975 8.25035C20.4173 8.56181 20.745 8.85506 21.0919 9.1646L21.1408 9.20868C21.7254 9.7166 22.4442 10.3491 22.5208 11.3554C22.6071 12.5533 21.7925 13.272 21.1408 13.8374C20.7862 14.1441 20.4604 14.4316 20.3167 14.7383C20.1557 15.0804 20.2007 15.5816 20.2486 16.1039L20.2496 16.1183C20.3262 16.9808 20.4125 18.0541 19.5883 18.8783C18.7833 19.6833 17.7004 19.6066 16.8283 19.5395L16.8072 19.5376C16.307 19.5002 15.8364 19.4648 15.5058 19.5874C15.18 19.712 14.8733 20.057 14.5475 20.4308C14.0396 21.0154 13.4071 21.7341 12.4008 21.8108H12.2283L12.2187 21.8012ZM8.33749 18.0445C8.71124 18.0445 9.08499 18.0829 9.44916 18.217C10.0922 18.4556 10.5407 18.9578 10.9403 19.4044L10.9921 19.4629C11.4617 19.9995 11.7683 20.3253 12.1612 20.3541H12.2858C12.6787 20.3253 12.9854 19.9995 13.455 19.4629L13.4617 19.4552C13.8728 18.9875 14.3309 18.4652 14.9979 18.217C15.6304 17.987 16.2917 18.0349 16.9337 18.0828C17.7387 18.1404 18.2562 18.1595 18.5725 17.8433C18.9079 17.5079 18.8887 16.9999 18.8217 16.2141L18.8207 16.2036V16.2026C18.7642 15.5442 18.699 14.8015 19.0133 14.1154C19.2807 13.5336 19.7656 13.1139 20.1949 12.7411L20.2017 12.7354C20.7767 12.237 21.1312 11.9016 21.0929 11.4416C21.0642 11.0487 20.7383 10.742 20.2017 10.2724L20.194 10.2657C19.7263 9.85556 19.204 9.39652 18.9462 8.72952C18.7095 8.09414 18.7632 7.41085 18.8111 6.81189L18.8121 6.79368C18.8792 5.99827 18.8983 5.49993 18.5629 5.15493C18.2275 4.81952 17.7196 4.83868 16.9242 4.90577L16.9079 4.90673C16.3079 4.95464 15.6247 5.00927 14.9883 4.7716C14.3462 4.53298 13.8968 4.03081 13.4981 3.58423L13.4454 3.52577C12.9758 2.9891 12.6692 2.66327 12.2762 2.63452H12.1421C11.7587 2.66327 11.4521 2.9891 10.9825 3.52577L10.9758 3.53343C10.5656 4.0011 10.1075 4.52339 9.43958 4.7716C8.80324 5.00927 8.12091 4.95464 7.52099 4.90673L7.50374 4.90577C6.70832 4.83868 6.20999 4.81952 5.86499 5.15493C5.54874 5.47118 5.56791 5.98868 5.62541 6.79368C5.67333 7.43577 5.72124 8.09702 5.49124 8.72952C5.24208 9.40035 4.70541 9.86993 4.23583 10.2724C3.64166 10.7899 3.31583 11.0966 3.34458 11.5566C3.37333 11.9495 3.69916 12.2562 4.23583 12.7258L4.26841 12.7545C4.73033 13.1589 5.24783 13.6132 5.49124 14.2687C5.72124 14.9012 5.67333 15.5624 5.62541 16.2045C5.56791 17.0095 5.54874 17.527 5.86499 17.8433C6.20041 18.1787 6.70832 18.1595 7.50374 18.0924C7.55932 18.0886 7.61491 18.0838 7.67241 18.079C7.88228 18.0627 8.10174 18.0445 8.32791 18.0445H8.33749ZM12.1143 9.84598C12.3242 9.87473 12.5925 9.9466 12.8187 10.1728C13.0448 10.3989 13.1177 10.6673 13.1454 10.8771C13.1694 11.0573 13.1694 11.2691 13.1694 11.4665V15.3324C13.1694 15.7292 12.8474 16.0512 12.4507 16.0512C12.0539 16.0512 11.7319 15.7292 11.7319 15.3324V11.4991C11.7319 11.4042 11.7319 11.3276 11.7309 11.2605C11.6648 11.2595 11.5872 11.2595 11.4923 11.2595C11.0956 11.2595 10.7736 10.9375 10.7736 10.5408C10.7736 10.144 11.0956 9.82202 11.4923 9.82202H11.5278C11.7233 9.82202 11.9351 9.82202 12.1143 9.84598ZM12.2111 6.70743H12.2197C12.7497 6.70743 13.178 7.13677 13.178 7.66577C13.178 8.19477 12.7497 8.6241 12.2197 8.6241H12.2111C11.6821 8.6241 11.2527 8.19477 11.2527 7.66577C11.2527 7.13677 11.6821 6.70743 12.2111 6.70743Z" fill="currentColor"/>
</svg>
