<svg width="24" height="23" viewBox="0 0 24 23" fill="none" xmlns="http://www.w3.org/2000/svg">
<path d="M1.91669 11.4998C1.91669 5.81021 6.52914 1.19775 12.2188 1.19775C17.9084 1.19775 22.5209 5.81021 22.5209 11.4998C22.5209 17.1895 17.9084 21.8019 12.2188 21.8019C6.52914 21.8019 1.91669 17.1895 1.91669 11.4998ZM12.2188 20.3644C17.1149 20.3644 21.0834 16.396 21.0834 11.4998C21.0834 6.60371 17.1149 2.63525 12.2188 2.63525C7.32264 2.63525 3.35419 6.60371 3.35419 11.4998C3.35419 16.396 7.32264 20.3644 12.2188 20.3644ZM11.731 11.2612C11.6649 11.2603 11.5872 11.2603 11.4924 11.2603C11.0956 11.2603 10.7736 10.9383 10.7736 10.5415C10.7736 10.1448 11.0956 9.82275 11.4924 9.82275H11.5259C11.7224 9.82275 11.9341 9.82275 12.1143 9.84671C12.3242 9.8745 12.5925 9.94734 12.8187 10.1735C13.0449 10.3997 13.1177 10.668 13.1455 10.8779C13.1694 11.058 13.1694 11.2698 13.1694 11.4663V16.2915C13.1694 16.6883 12.8474 17.0103 12.4507 17.0103C12.0539 17.0103 11.7319 16.6883 11.7319 16.2915V11.4998C11.7319 11.405 11.7319 11.3283 11.731 11.2612ZM12.2111 6.70817H12.2197C12.7497 6.70817 13.1781 7.1375 13.1781 7.6665C13.1781 8.1955 12.7497 8.62484 12.2197 8.62484H12.2111C11.6821 8.62484 11.2528 8.1955 11.2528 7.6665C11.2528 7.1375 11.6821 6.70817 12.2111 6.70817Z" fill="currentColor"/>
</svg>
