<svg width="16" height="15" viewBox="0 0 16 15" fill="none" xmlns="http://www.w3.org/2000/svg">
<path d="M1.28003 7.5C1.28003 3.78937 4.36035 0.78125 8.16003 0.78125C11.9597 0.78125 15.04 3.78937 15.04 7.5C15.04 11.2106 11.9597 14.2187 8.16003 14.2187C4.36035 14.2187 1.28003 11.2106 1.28003 7.5ZM8.16003 13.2812C11.4298 13.2812 14.08 10.6931 14.08 7.5C14.08 4.30687 11.4298 1.71875 8.16003 1.71875C4.89027 1.71875 2.24003 4.30687 2.24003 7.5C2.24003 10.6931 4.89027 13.2812 8.16003 13.2812ZM7.83427 7.34437C7.79011 7.34375 7.73827 7.34375 7.67491 7.34375C7.40995 7.34375 7.19491 7.13375 7.19491 6.875C7.19491 6.61625 7.40995 6.40625 7.67491 6.40625H7.69731C7.82851 6.40625 7.96995 6.40625 8.09027 6.42187C8.23043 6.44 8.40963 6.4875 8.56067 6.635C8.71171 6.7825 8.76035 6.9575 8.77891 7.09437C8.79491 7.21187 8.79491 7.35 8.79491 7.47812V10.625C8.79491 10.8837 8.57987 11.0937 8.31491 11.0937C8.04995 11.0937 7.83491 10.8837 7.83491 10.625V7.5C7.83491 7.43812 7.83491 7.38812 7.83427 7.34437ZM8.15491 4.375H8.16067C8.51459 4.375 8.80067 4.655 8.80067 5C8.80067 5.345 8.51459 5.625 8.16067 5.625H8.15491C7.80163 5.625 7.51491 5.345 7.51491 5C7.51491 4.655 7.80163 4.375 8.15491 4.375Z" fill="currentColor"/>
</svg>
