<svg width="20" height="20" viewBox="0 0 20 20" fill="none" xmlns="http://www.w3.org/2000/svg">
<path d="M10.2625 5.23125H13.8683C14.7175 5.23125 15.4025 5.23125 15.9517 5.28485C16.5192 5.34005 17.0108 5.45765 17.4458 5.73685C17.7867 5.95605 18.08 6.23685 18.3083 6.56485C18.5983 6.98245 18.7208 7.45445 18.7792 7.99925C18.835 8.52645 18.835 9.18405 18.835 9.99925V10.0649C18.835 11.4409 18.835 12.5192 18.7433 13.3785C18.6508 14.2536 18.4583 14.9672 18.0267 15.5872C17.6775 16.0889 17.2283 16.5209 16.705 16.8561C16.06 17.2697 15.3167 17.4553 14.4042 17.5441C13.51 17.6313 12.3867 17.6313 10.9533 17.6313H9.82833C7.905 17.6313 6.3975 17.6313 5.22083 17.4793C4.0175 17.3241 3.0675 17.0001 2.32167 16.284C1.57583 15.5681 1.23833 14.6561 1.07583 13.5001C0.918335 12.3713 0.918335 10.9241 0.918335 9.07765V6.55925C0.918335 5.85605 0.918335 5.28885 0.960002 4.83125C1.00333 4.35925 1.095 3.94645 1.31417 3.56965C1.59667 3.08325 2.01417 2.68245 2.52 2.41205C2.9125 2.20165 3.34333 2.11365 3.83417 2.07205C4.31167 2.03125 4.90167 2.03125 5.63417 2.03125H5.66333C5.7025 2.03125 5.74083 2.03125 5.77833 2.03125C6.63667 2.03125 7.22917 2.03045 7.76167 2.22245C8.925 2.64085 9.435 3.63205 9.82833 4.39685C9.855 4.44885 9.88167 4.50005 9.9075 4.54965L10.2625 5.23125ZM7.3225 3.34565C7.03 3.24085 6.6825 3.23125 5.66333 3.23125C4.895 3.23125 4.36 3.23205 3.94417 3.26725C3.53667 3.30165 3.30417 3.36565 3.12917 3.45925C2.82583 3.62245 2.575 3.86245 2.40584 4.15445C2.30833 4.32245 2.24083 4.54565 2.205 4.93685C2.16833 5.33525 2.16833 5.84965 2.16833 6.58645V9.03125C2.16833 10.9337 2.16917 12.3009 2.315 13.3409C2.45834 14.3633 2.73083 14.9801 3.205 15.4353C3.68 15.8913 4.3225 16.1529 5.3875 16.2905C6.47083 16.4305 7.89417 16.4313 9.87667 16.4313H10.9183C12.3942 16.4313 13.4542 16.4305 14.2775 16.3505C15.0917 16.2705 15.605 16.1185 16.0108 15.8585C16.3975 15.6105 16.7292 15.2913 16.9875 14.9201C17.2592 14.5304 17.4175 14.0377 17.5 13.2569C17.5842 12.4656 17.585 11.4481 17.585 10.0312C17.585 9.17605 17.5842 8.58005 17.535 8.12005C17.4875 7.67045 17.3992 7.41925 17.2683 7.23125C17.1317 7.03445 16.9558 6.86565 16.7517 6.73445C16.5558 6.60965 16.2933 6.52485 15.825 6.47845C15.3467 6.43205 14.725 6.43125 13.835 6.43125H9.89C9.88083 6.43125 9.8725 6.43125 9.86417 6.43125H5.71C5.36417 6.43125 5.085 6.16245 5.085 5.83125C5.085 5.50005 5.36417 5.23125 5.71 5.23125H8.865L8.77667 5.06085C8.315 4.17525 8.0125 3.59445 7.3225 3.34565Z" fill="currentColor"/>
</svg>
