<svg width="24" height="24" viewBox="0 0 24 24" fill="none" xmlns="http://www.w3.org/2000/svg">
<path d="M11.0015 2.75C15.5453 2.75 19.2515 6.45614 19.2515 11C19.2515 13.0195 18.5202 14.8731 17.3071 16.3105L17.0103 16.6621L17.3354 16.9863L21.1772 20.8291C21.272 20.9238 21.272 21.0869 21.1772 21.1816C21.1261 21.2328 21.0653 21.2549 21.0005 21.2549C20.9359 21.2548 20.8758 21.2327 20.8247 21.1816L16.6577 17.0146L16.3062 17.3105C14.8695 18.5207 13.0182 19.25 11.0015 19.25C6.45758 19.25 2.75146 15.5438 2.75146 11C2.75146 6.45616 6.45758 2.75002 11.0015 2.75ZM11.0015 3.25C6.7253 3.25002 3.25146 6.72387 3.25146 11C3.25146 15.2761 6.7253 18.75 11.0015 18.75C15.2776 18.75 18.7515 15.2761 18.7515 11C18.7515 6.72386 15.2776 3.25 11.0015 3.25Z" fill="currentColor" stroke="currentColor"/>
</svg>
