<svg width="20" height="20" viewBox="0 0 20 20" fill="none" xmlns="http://www.w3.org/2000/svg">
<path d="M15.7917 5.29932C15.856 5.27555 15.9278 5.30862 15.9518 5.37256C15.9758 5.43714 15.9429 5.50982 15.8786 5.53369C14.8224 5.92561 13.7583 6.70781 12.7711 7.62158C11.7778 8.54106 10.8312 9.62354 10.0124 10.6538C8.37447 12.7146 7.21946 14.6021 7.19205 14.647V14.6479C7.16919 14.6856 7.1279 14.7085 7.08463 14.7085L7.05045 14.7036C7.01889 14.6947 6.99263 14.674 6.9772 14.647L6.97623 14.645C5.5456 12.1419 4.46263 11.8298 4.2067 11.8101L4.12955 11.8042L4.12271 11.8052C4.11577 11.8 4.10615 11.7931 4.09537 11.7817C4.06155 11.7461 4.04941 11.7122 4.04459 11.689L4.04166 11.6655L4.04263 11.6597C4.04387 11.6532 4.04618 11.644 4.04947 11.6333C4.05933 11.6015 4.07249 11.5808 4.08267 11.5708C4.08323 11.5703 4.08719 11.5675 4.09634 11.563C4.1068 11.5578 4.12039 11.5523 4.13638 11.5483C4.15109 11.5447 4.16422 11.5424 4.17252 11.5415C4.25273 11.5429 5.27296 11.5974 6.6774 13.686L7.09732 14.311L7.51041 13.6821C8.18597 12.6529 9.43479 10.8528 10.9391 9.15479C12.4577 7.44067 14.179 5.89778 15.7917 5.29932Z" fill="currentColor" stroke="currentColor"/>
</svg>
