<svg width="24" height="24" viewBox="0 0 24 24" fill="none" xmlns="http://www.w3.org/2000/svg">
<path d="M17.6631 8.75378C17.7831 8.5908 17.9987 8.53956 18.1748 8.62097L18.2471 8.66394C18.4317 8.80042 18.4715 9.06092 18.3359 9.24695C18.2077 9.41729 17.8322 9.91391 17.6133 10.1942C17.1714 10.7605 16.565 11.5163 15.9072 12.2733C15.2518 13.0282 14.5366 13.7943 13.8799 14.3739C13.6337 14.5915 13.3906 14.788 13.1572 14.9491L12.9268 15.0985C12.6364 15.2741 12.3133 15.4168 12 15.4169C11.6856 15.4169 11.3622 15.2748 11.0732 15.0995L11.0723 15.0985L10.8428 14.9491C10.6091 14.788 10.3652 14.5922 10.1201 14.3749L10.1191 14.3739C9.46253 13.7943 8.74807 13.0281 8.09277 12.2733C7.43502 11.5164 6.82859 10.7605 6.38672 10.1942L5.66309 9.24597C5.52868 9.06154 5.56807 8.80155 5.75195 8.66492C5.93808 8.52839 6.19922 8.5678 6.33594 8.75281L6.33789 8.75574C6.46019 8.91814 6.82544 9.40057 7.04297 9.68054V9.68152C7.47906 10.2402 8.07581 10.9838 8.7207 11.7264C9.36749 12.4718 10.0549 13.2057 10.6709 13.7509H10.6719C10.9803 14.0224 11.2603 14.2393 11.502 14.3856H11.5029C11.6216 14.4568 11.7205 14.5025 11.7939 14.5311C11.8306 14.5454 11.8615 14.5554 11.8848 14.5624C11.8963 14.5658 11.9061 14.5691 11.9141 14.5712C11.918 14.5722 11.9218 14.5724 11.9248 14.5731C11.9262 14.5734 11.9275 14.5738 11.9287 14.5741L11.9307 14.5751H11.9316L12.002 14.2489L11.9326 14.5751L12.0029 14.5897L12.0742 14.5741H12.0771C12.0784 14.5738 12.0805 14.5725 12.082 14.5721C12.085 14.5714 12.0889 14.5712 12.0928 14.5702C12.1006 14.5681 12.1099 14.5648 12.1211 14.5614C12.1438 14.5544 12.1733 14.5444 12.209 14.5302C12.2807 14.5016 12.3774 14.4562 12.4951 14.3856H12.4961C12.7391 14.2391 13.0198 14.0223 13.3281 13.7509H13.3291C13.9452 13.2056 14.6308 12.4716 15.2773 11.7264C15.9222 10.9838 16.519 10.2402 16.9551 9.68152C17.1738 9.40128 17.539 8.91755 17.6602 8.75769L17.6631 8.75378Z" fill="currentColor" stroke="currentColor" stroke-width="0.666667"/>
</svg>
