<svg width="24" height="24" viewBox="0 0 24 24" fill="none" xmlns="http://www.w3.org/2000/svg">
<path d="M8.66602 5.7522C8.80275 5.56761 9.06402 5.52808 9.25 5.66431L10.1963 6.38696C10.7626 6.82883 11.5184 7.43525 12.2754 8.09302C12.9359 8.66651 13.6053 9.28546 14.1514 9.87134L14.377 10.1194C14.6665 10.4481 14.9192 10.7709 15.1006 11.0725V11.0735C15.2762 11.364 15.4189 11.6869 15.4189 12.0002C15.4189 12.2359 15.3387 12.4756 15.2246 12.7034L15.1006 12.927C14.9193 13.2286 14.6665 13.5515 14.377 13.8801C13.7963 14.5369 13.0301 15.2522 12.2754 15.9075C11.5186 16.5651 10.7625 17.1707 10.1963 17.6125C9.9145 17.8318 9.41722 18.2073 9.24707 18.3362C9.06238 18.4704 8.80237 18.4318 8.66602 18.2473H8.66699C8.53056 18.0621 8.56948 17.8015 8.75488 17.6643L8.75781 17.6624C8.91995 17.5402 9.40249 17.1749 9.68262 16.9573L9.68359 16.9563C10.2425 16.52 10.9861 15.9223 11.7285 15.2786C12.3806 14.7127 13.0238 14.1159 13.5391 13.5627L13.752 13.3284C13.9565 13.0969 14.1293 12.8812 14.2646 12.6858L14.3877 12.4973C14.4594 12.3781 14.5055 12.2791 14.5342 12.2053C14.5484 12.1686 14.5585 12.1379 14.5654 12.1145C14.5689 12.1028 14.5712 12.0924 14.5732 12.0842C14.5743 12.0802 14.5755 12.0766 14.5762 12.0735C14.5765 12.0721 14.5769 12.0708 14.5771 12.0696V12.0657L14.5918 11.9973L14.5771 11.928V11.927L14.5762 11.925C14.5759 11.9237 14.5756 11.9217 14.5752 11.9202C14.5745 11.9171 14.5733 11.9134 14.5723 11.9094C14.5702 11.9014 14.5679 11.8915 14.5645 11.8801C14.5575 11.8571 14.5475 11.8273 14.5332 11.7913C14.5046 11.7189 14.459 11.6216 14.3877 11.5032V11.5022L14.2646 11.3137C14.1744 11.1835 14.0671 11.0447 13.9453 10.8977L13.752 10.6711C13.2076 10.0549 12.4735 9.36839 11.7285 8.72095C10.9858 8.07702 10.2421 7.48016 9.68359 7.04321H9.68262C9.40265 6.82569 8.91999 6.45955 8.75977 6.33813L8.75488 6.33521C8.56978 6.19917 8.52942 5.93766 8.66602 5.7522Z" fill="currentColor" stroke="currentColor" stroke-width="0.666667"/>
</svg>
