<svg width="24" height="24" viewBox="0 0 24 24" fill="none" xmlns="http://www.w3.org/2000/svg">
<path d="M14.7529 5.66431C14.9377 5.52862 15.1992 5.56808 15.3359 5.75317C15.472 5.93848 15.4326 6.19914 15.2471 6.33618L15.2441 6.33813L14.3193 7.04321C13.7606 7.47933 13.0162 8.07594 12.2734 8.72095C11.5281 9.36774 10.7942 10.0551 10.249 10.6711V10.6721C9.97766 10.9804 9.76152 11.2607 9.61523 11.5022C9.54316 11.6214 9.49649 11.7211 9.46777 11.7952C9.45352 11.832 9.44341 11.8625 9.43652 11.886C9.43307 11.8978 9.43074 11.9081 9.42871 11.9163C9.4277 11.9203 9.42649 11.9239 9.42578 11.927C9.42543 11.9286 9.42509 11.9305 9.4248 11.9319V11.9348L9.41016 12.0032L9.4248 12.0725L9.42578 12.0735V12.0754C9.42605 12.0767 9.42643 12.0779 9.42676 12.0793C9.42748 12.0824 9.42869 12.0862 9.42969 12.0901C9.43176 12.0982 9.43402 12.1088 9.4375 12.1204C9.44447 12.1434 9.4545 12.1733 9.46875 12.2092C9.49734 12.2813 9.54322 12.3778 9.61426 12.4954V12.4963C9.76073 12.7393 9.97758 13.02 10.249 13.3284V13.3293C10.7942 13.9454 11.5283 14.631 12.2734 15.2776C13.0163 15.9227 13.7606 16.5192 14.3193 16.9553C14.5995 17.174 15.0822 17.5392 15.2422 17.6604L15.2461 17.6633C15.4091 17.7834 15.4604 17.9989 15.3789 18.175L15.3359 18.2473C15.1996 18.4317 14.9399 18.4713 14.7539 18.3362C14.5837 18.208 14.087 17.8325 13.8066 17.6135H13.8057C13.3809 17.2821 12.8497 16.8577 12.291 16.3889L11.7266 15.9075C10.9718 15.2521 10.2047 14.537 9.62402 13.8801C9.33473 13.5517 9.08258 13.2284 8.90137 12.927L8.77734 12.7034C8.66327 12.4755 8.58306 12.2352 8.58301 12.0002C8.58301 11.6858 8.72609 11.3625 8.90137 11.0735V11.0725C9.08284 10.7707 9.33593 10.4465 9.625 10.1194C10.0604 9.62696 10.6002 9.1021 11.1611 8.59399L11.7266 8.09302C12.4835 7.4353 13.2394 6.82882 13.8057 6.38696H13.8066C14.0874 6.16749 14.5811 5.79444 14.7529 5.66431Z" fill="currentColor" stroke="currentColor" stroke-width="0.666667"/>
</svg>
