<svg width="16" height="16" viewBox="0 0 16 16" fill="none" xmlns="http://www.w3.org/2000/svg">
<path d="M7.99967 2.49966C8.09158 2.49966 8.16666 2.57475 8.16666 2.66666V7.83365H13.3337C13.4253 7.83382 13.4995 7.90802 13.4997 7.99966C13.4997 8.09146 13.4254 8.16648 13.3337 8.16666H8.16666V13.3336C8.16649 13.4254 8.09147 13.4997 7.99967 13.4997C7.90802 13.4995 7.83383 13.4253 7.83366 13.3336V8.16666H2.66666C2.57476 8.16666 2.49967 8.09157 2.49967 7.99966C2.49985 7.90791 2.57487 7.83365 2.66666 7.83365H7.83366V2.66666C7.83366 2.57486 7.90792 2.49984 7.99967 2.49966Z" fill="currentColor" stroke="currentColor" stroke-width="0.666667"/>
</svg>
