<svg width="20" height="20" viewBox="0 0 20 20" fill="none" xmlns="http://www.w3.org/2000/svg">
<path d="M10.0004 1.5415C10.5298 1.54157 11.0239 1.68781 11.5775 1.97021L11.8187 2.09912C12.4628 2.46013 13.2095 2.99981 14.1908 3.70947L15.4486 4.61865C16.2366 5.188 16.8366 5.62208 17.2836 6.01904L17.2845 6.02002C17.7384 6.42255 18.0434 6.79374 18.2347 7.24072V7.2417C18.4019 7.63385 18.4646 8.04391 18.4584 8.53955L18.4515 8.75732C18.4231 9.34293 18.3133 10.0584 18.1693 10.9966L17.9066 12.7065C17.727 13.8728 17.5851 14.7942 17.4008 15.5288L17.3187 15.8325C17.0892 16.6256 16.7833 17.1936 16.2709 17.6196C15.7577 18.0458 15.1322 18.2537 14.2875 18.356C13.4536 18.4573 12.3899 18.4585 10.9906 18.4585H9.00916C7.61011 18.4585 6.54705 18.4572 5.71326 18.356H5.71228C4.86763 18.2537 4.24201 18.0459 3.72888 17.6196C3.21642 17.1936 2.91052 16.6256 2.68103 15.8325L2.599 15.5288C2.41469 14.7942 2.27279 13.8728 2.09314 12.7065L1.83044 10.9966C1.72243 10.2929 1.63399 9.71443 1.58435 9.22217L1.54822 8.75732C1.51954 8.16177 1.57432 7.69058 1.76501 7.24268C1.95632 6.79514 2.26191 6.42259 2.71619 6.01904C3.16312 5.62206 3.76311 5.18802 4.55115 4.61865L5.80896 3.70947C6.79025 2.99978 7.53691 2.46015 8.18103 2.09912C8.8354 1.73202 9.39514 1.5415 10.0004 1.5415ZM10.0004 1.7915C9.45342 1.7915 8.93611 1.96105 8.3031 2.31689C7.66718 2.67346 6.925 3.21147 5.92419 3.93506H5.92322L4.724 4.80225C4.1203 5.23832 3.63389 5.59009 3.24255 5.90381L2.8822 6.20654C2.44248 6.59606 2.16652 6.93981 1.99548 7.34033C1.84603 7.69065 1.78615 8.06449 1.79236 8.53662L1.79919 8.74463C1.81289 9.03329 1.84665 9.35542 1.89587 9.7251L2.08337 10.9917L2.33435 12.6245C2.54307 13.9841 2.69755 14.9928 2.92126 15.7632C3.1434 16.529 3.42862 17.0443 3.88904 17.4272C4.34913 17.8101 4.92202 18.0085 5.74255 18.1079C6.56653 18.2083 7.62569 18.2085 9.05115 18.2085H10.9496C12.3748 18.2085 13.4333 18.2083 14.2572 18.1079C15.0779 18.0085 15.6506 17.8102 16.1107 17.4272C16.5712 17.0443 16.8563 16.5291 17.0785 15.7632C17.3022 14.9928 17.4567 13.9841 17.6654 12.6245L17.9164 10.9917C18.027 10.273 18.1161 9.69317 18.1654 9.20459L18.2015 8.74463C18.2295 8.17159 18.1759 7.74051 18.0052 7.34033C17.8555 6.98971 17.6249 6.68243 17.2748 6.3501L17.1176 6.20654C16.677 5.81525 16.0806 5.38364 15.2758 4.80225L14.0765 3.93506C13.2005 3.30171 12.5218 2.81108 11.9398 2.45947L11.6967 2.31689C11.0639 1.9612 10.5471 1.79158 10.0004 1.7915ZM12.4222 14.0669C12.477 14.0247 12.5553 14.0352 12.598 14.0884V14.0894C12.6409 14.1445 12.631 14.2226 12.5765 14.2651C11.8878 14.8012 10.986 15.1244 10.0004 15.1245C9.13773 15.1245 8.33847 14.8776 7.6908 14.4565L7.42322 14.2651C7.36889 14.2226 7.35795 14.1435 7.40076 14.0884C7.44315 14.0349 7.52167 14.0252 7.57654 14.0669V14.0679C8.22014 14.5692 9.06946 14.8745 10.0004 14.8745C10.931 14.8744 11.7787 14.5681 12.4222 14.0669Z" fill="currentColor" stroke="currentColor"/>
</svg>
