<svg width="20" height="20" viewBox="0 0 20 20" fill="none" xmlns="http://www.w3.org/2000/svg">
<path d="M9.99988 1.5415C10.6033 1.5415 11.1574 1.74471 11.8026 2.13525H11.8036C12.4385 2.51863 13.173 3.09174 14.1376 3.84521H14.1385L15.0028 4.521H15.0038L15.1239 4.61475C16.3007 5.53243 16.9312 6.03847 17.2723 6.73975H17.2733C17.6153 7.44066 17.6257 8.25095 17.6249 9.74561V11.6899C17.6249 13.2398 17.6239 14.4188 17.5018 15.3306C17.3938 16.1395 17.1886 16.7534 16.7938 17.2407L16.6122 17.4419C16.0964 17.9589 15.4286 18.2103 14.5077 18.3345C13.5988 18.4572 12.4247 18.4585 10.8807 18.4585H9.11902C7.57502 18.4585 6.40106 18.4572 5.49304 18.3345H5.49207C4.68554 18.2258 4.07361 18.0198 3.58777 17.6235L3.38757 17.4419C2.87241 16.9246 2.62225 16.2549 2.49792 15.3296C2.37595 14.4179 2.37488 13.2395 2.37488 11.6899V9.74658C2.37402 8.25107 2.38447 7.44065 2.72644 6.73975H2.72742C3.06852 6.03847 3.69903 5.53243 4.87585 4.61475L4.99695 4.521L5.86218 3.84521C6.7071 3.18577 7.37516 2.66447 7.95398 2.2876L8.19714 2.13525C8.84229 1.74473 9.3965 1.54152 9.99988 1.5415ZM9.99988 1.7915C9.45916 1.79152 8.95103 1.97182 8.32703 2.34814L8.32605 2.34912C7.6997 2.72812 6.96896 3.29826 5.98425 4.06689L5.15125 4.71729H5.15027C4.49959 5.22534 4.0326 5.59524 3.69617 5.90674C3.35214 6.22528 3.11807 6.50654 2.95105 6.84912C2.78412 7.19159 2.7062 7.54936 2.66687 8.01709C2.62839 8.47494 2.62488 9.07252 2.62488 9.8999V11.6431C2.62488 13.2231 2.62551 14.3965 2.74597 15.2974C2.8658 16.1934 3.10355 16.8017 3.56433 17.2642V17.2651C4.02522 17.7282 4.63229 17.9666 5.52527 18.0874H5.52625C6.42387 18.2079 7.59206 18.2085 9.16687 18.2085H10.8329C12.4076 18.2085 13.5759 18.2078 14.4735 18.0874H14.4745C15.3685 17.9665 15.9736 17.7272 16.4344 17.2642C16.8381 16.8594 17.0709 16.3433 17.203 15.6196L17.2538 15.2974C17.3752 14.3961 17.3749 13.2226 17.3749 11.6431V9.8999C17.3749 9.07252 17.3714 8.47494 17.3329 8.01709C17.2936 7.54934 17.2157 7.1916 17.0487 6.84912C16.8817 6.50667 16.6484 6.22513 16.3046 5.90674C16.1362 5.75088 15.9347 5.58018 15.6942 5.38525L14.8495 4.71729L14.0155 4.06689C13.0308 3.29825 12.3001 2.72811 11.6737 2.34912V2.34814C11.05 1.97139 10.5406 1.7915 9.99988 1.7915ZM12.4999 13.6245H14.1669C14.2355 13.6246 14.2917 13.6809 14.2919 13.7495V15.4165C14.2919 15.4853 14.2356 15.5414 14.1669 15.5415H12.4999C12.4311 15.5415 12.3749 15.4853 12.3749 15.4165V13.7495C12.3751 13.6808 12.4312 13.6245 12.4999 13.6245Z" fill="currentColor" stroke="currentColor"/>
</svg>
