<svg width="16" height="16" viewBox="0 0 16 16" fill="none" xmlns="http://www.w3.org/2000/svg">
<path d="M8.92221 7.28271C8.57374 7.67297 8.24121 8.07139 7.93198 8.46045C6.61792 10.1138 5.69113 11.6282 5.6683 11.6655V11.6665C5.59639 11.5407 5.5252 11.4218 5.45541 11.3091L5.25912 11.0054L5.67905 11.6294L6.09213 11.0005C6.63128 10.1791 7.62665 8.74341 8.82553 7.39014C8.8574 7.35416 8.89014 7.31847 8.92221 7.28271ZM3.34116 9.33447C3.37396 9.33593 3.52647 9.34987 3.7728 9.48291C3.58742 9.3858 3.45096 9.35417 3.37338 9.34814L3.34213 9.34521C3.33932 9.34103 3.33724 9.33824 3.33627 9.33545C3.338 9.33507 3.33964 9.33475 3.34116 9.33447ZM12.1244 4.57764C12.1733 4.55221 12.2221 4.52788 12.2708 4.50439C12.2219 4.52782 12.1732 4.55243 12.1244 4.57764Z" fill="currentColor" stroke="currentColor"/>
</svg>
