<svg width="24" height="24" viewBox="0 0 24 24" fill="none" xmlns="http://www.w3.org/2000/svg">
<path d="M12.2403 1.52032C17.763 1.52049 22.2403 5.99764 22.2403 11.5203C22.2402 17.0429 17.7629 21.5202 12.2403 21.5203C6.71764 21.5203 2.24049 17.043 2.24033 11.5203C2.24033 5.99754 6.71754 1.52032 12.2403 1.52032ZM12.2403 2.32013C7.15895 2.32013 3.04013 6.43895 3.04013 11.5203C3.0403 16.6016 7.15906 20.7195 12.2403 20.7195C17.3214 20.7194 21.4394 16.6014 21.4395 11.5203C21.4395 6.43906 17.3216 2.3203 12.2403 2.32013ZM14.838 8.35724C14.993 8.20171 15.2459 8.20089 15.4024 8.35724C15.5587 8.51355 15.5587 8.76636 15.4024 8.92267L13.0323 11.2938L12.8058 11.5203L13.0323 11.7459L15.4024 14.117C15.5589 14.2735 15.5589 14.5274 15.4034 14.6824H15.4024C15.2462 14.8387 14.9933 14.8386 14.837 14.6824L12.4659 12.3123L12.2403 12.0858L9.64365 14.6824C9.50701 14.8191 9.29603 14.8364 9.14072 14.7342L9.07724 14.6824C8.92166 14.5274 8.92071 14.2735 9.07724 14.117L11.4474 11.7459L11.6739 11.5203L11.4474 11.2938L9.07724 8.92267C8.92099 8.76635 8.92095 8.51353 9.07724 8.35724C9.23353 8.20095 9.48635 8.20098 9.64267 8.35724L12.2403 10.9549L12.4659 10.7283L14.837 8.35724H14.838Z" fill="currentColor" stroke="currentColor" stroke-width="0.64"/>
</svg>
