<svg width="24" height="24" viewBox="0 0 24 24" fill="none" xmlns="http://www.w3.org/2000/svg">
<path d="M18.4374 4.51776C18.5937 4.36145 18.8465 4.36145 19.0029 4.51776C19.1589 4.67402 19.1589 4.92595 19.0029 5.08221L12.7929 11.2941L12.5663 11.5197L12.7929 11.7463L19.0029 17.9572C19.1592 18.1135 19.1592 18.3663 19.0029 18.5226C18.8465 18.679 18.5937 18.679 18.4374 18.5226L12.2265 12.3127L11.9999 12.0861L11.7743 12.3127L5.56242 18.5226C5.40616 18.6787 5.15422 18.6787 4.99797 18.5226C4.84166 18.3663 4.84166 18.1135 4.99797 17.9572L11.2079 11.7463L11.4345 11.5197L11.2079 11.2941L4.99797 5.08221C4.84169 4.9259 4.84167 4.67406 4.99797 4.51776C5.15427 4.36146 5.40611 4.36148 5.56242 4.51776L11.7743 10.7277L11.9999 10.9543L12.2265 10.7277L18.4374 4.51776Z" fill="currentColor" stroke="currentColor" stroke-width="0.64"/>
</svg>
