<svg width="24" height="24" viewBox="0 0 24 24" fill="none" xmlns="http://www.w3.org/2000/svg">
<path d="M21 11.5833C21.2299 11.5833 21.417 11.7703 21.417 12.0002C21.4169 16.0495 18.4394 18.9163 14.5 18.9163H3.66504L4.31445 19.4983C4.3802 19.5572 4.4509 19.6197 4.52344 19.6819V19.6829C4.8284 19.948 5.13571 20.1933 5.36621 20.3733V20.3743C5.48081 20.4635 5.57743 20.5361 5.64355 20.5862L5.71777 20.6428L5.72266 20.6467L5.74121 20.6604L5.74609 20.6643H5.74707C5.93174 20.8009 5.97183 21.0613 5.83594 21.2473C5.69943 21.4319 5.44094 21.4712 5.25586 21.3372L5.24707 21.3303L5.23926 21.3254L5.22754 21.3167L5.22168 21.3118L5.21484 21.3069L5.14062 21.2512C5.07108 21.1991 4.97224 21.1233 4.85156 21.0295C4.61357 20.8439 4.2961 20.5891 3.97656 20.3118V20.3108L3.7373 20.0999C3.49929 19.8844 3.2677 19.6587 3.0791 19.4446L3.07812 19.4436C3.01521 19.3726 2.95491 19.3003 2.89941 19.2278L2.75 19.012C2.67068 18.8793 2.58307 18.6979 2.58301 18.5002C2.58301 18.3021 2.6715 18.1204 2.75098 17.9875L2.75 17.9866C2.83655 17.8437 2.95271 17.6973 3.07812 17.5559L3.0791 17.5549C3.33057 17.2695 3.65906 16.9638 3.97656 16.6887C4.29702 16.4105 4.61531 16.154 4.85254 15.97C4.97384 15.8757 5.07263 15.8 5.14062 15.7493L5.14453 15.7463C5.16004 15.7344 5.18674 15.7137 5.21094 15.6956C5.2228 15.6866 5.23435 15.678 5.24219 15.6721C5.24592 15.6693 5.24887 15.6669 5.25098 15.6653L5.25293 15.6643C5.43825 15.528 5.69883 15.5676 5.83594 15.7532C5.97139 15.9376 5.93228 16.1957 5.74902 16.3333L5.74805 16.3352L5.74121 16.3401L5.72266 16.3538L5.71777 16.3577C5.71051 16.3632 5.6767 16.3879 5.64648 16.4114L5.36621 16.6262C5.13618 16.8058 4.82975 17.0511 4.52539 17.3157C4.45218 17.3784 4.38078 17.4418 4.31445 17.5012L3.66504 18.0833H14.5C17.9877 18.0833 20.5829 15.5805 20.583 12.0002C20.583 11.7703 20.7701 11.5833 21 11.5833ZM18.1641 2.75122C18.2838 2.59032 18.4988 2.54038 18.6748 2.62134L18.748 2.66528L18.75 2.66724L18.7725 2.68384L18.7783 2.68872L18.7852 2.69263C18.7985 2.70196 18.8212 2.71988 18.8555 2.74634L18.8594 2.74829L19.1475 2.96997C19.3856 3.15575 19.7034 3.41093 20.0234 3.68872C20.3409 3.96382 20.6694 4.26946 20.9209 4.55493L20.9219 4.55591C20.9848 4.62686 21.0451 4.69927 21.1006 4.77173L21.25 4.98853C21.3291 5.11914 21.417 5.30145 21.417 5.50024C21.4169 5.69877 21.329 5.88045 21.25 6.01099V6.01196C21.1634 6.15505 21.0475 6.30189 20.9219 6.4436L20.9209 6.44458C20.6694 6.73011 20.341 7.03562 20.0234 7.31079V7.31177C19.7031 7.58988 19.3846 7.84551 19.1475 8.02954L19.1465 8.03052C19.0279 8.12362 18.9297 8.19844 18.8594 8.25122L18.8555 8.25415C18.8399 8.26615 18.8133 8.28671 18.7891 8.30493C18.7772 8.31385 18.7657 8.32152 18.7578 8.32739C18.7541 8.33018 18.7512 8.33263 18.749 8.33423L18.7471 8.33521C18.5849 8.45466 18.365 8.43994 18.2207 8.30981L18.1641 8.24731C18.0447 8.08514 18.0604 7.86522 18.1904 7.72095L18.2529 7.66431L18.2588 7.6604L18.2773 7.64673L18.2822 7.64282C18.2893 7.63741 18.3224 7.61154 18.3525 7.58813L18.3535 7.58911C18.4218 7.53839 18.5194 7.46416 18.6348 7.37329L18.6338 7.37231C18.8642 7.19239 19.1718 6.94785 19.4766 6.68286L19.4756 6.68188C19.5483 6.6195 19.6196 6.55733 19.6855 6.49829L20.335 5.91626H9.5C6.01223 5.91626 3.41699 8.41984 3.41699 12.0002C3.41687 12.23 3.22983 12.4163 3 12.4163C2.77017 12.4163 2.58313 12.23 2.58301 12.0002C2.58301 7.95089 5.56052 5.08325 9.5 5.08325H20.335L19.6855 4.50122C19.6174 4.44016 19.5475 4.37947 19.4766 4.31763L19.0273 3.9397C18.8837 3.82262 18.749 3.71618 18.6338 3.62622L18.3594 3.41528L18.3574 3.41333L18.2822 3.35767L18.2773 3.35376L18.2588 3.34009L18.252 3.33521L18.2461 3.33032C18.0672 3.19225 18.0293 2.93495 18.1641 2.75122Z" fill="currentColor" stroke="currentColor" stroke-width="0.666667"/>
</svg>
