<svg width="24" height="24" viewBox="0 0 24 24" fill="none" xmlns="http://www.w3.org/2000/svg">
<path d="M8.13281 9.94458C9.66199 8.3525 12.1464 8.35224 13.6768 9.94458V9.9436C13.8843 10.1601 14.0633 10.3939 14.2129 10.6399L14.2139 10.6409C14.2763 10.7429 14.2559 10.8737 14.1709 10.9534L14.1299 10.9846C14.0119 11.056 13.8592 11.0184 13.7871 10.9006H13.7861C13.6871 10.7391 13.5745 10.5826 13.4473 10.4348L13.3154 10.2903C11.9826 8.90281 9.82579 8.90252 8.49316 10.2903L5.25391 13.6614C3.91624 15.0548 3.91589 17.3166 5.25391 18.7092C6.545 20.0536 8.60974 20.0956 9.94922 18.8352L10.0771 18.7092L10.7891 17.967C10.8864 17.8667 11.0443 17.8645 11.1436 17.9592C11.2304 18.0426 11.2443 18.1748 11.1816 18.2737L11.1504 18.3137L10.4365 19.0569C8.90727 20.6478 6.42272 20.648 4.89355 19.0569C3.36865 17.4705 3.36876 14.9021 4.89355 13.3157L8.13281 9.94458ZM13.5635 4.94458C15.0926 3.35253 17.5771 3.35234 19.1074 4.94458C20.6313 6.52999 20.6316 9.09827 19.1074 10.6848L15.8682 14.0559C15.6289 14.3041 15.3669 14.5145 15.0889 14.6848H15.0879C13.5847 15.6095 11.6146 15.3988 10.3242 14.0579H10.3252C10.1178 13.8406 9.93839 13.6069 9.78711 13.3596C9.72402 13.2562 9.74473 13.1256 9.83008 13.0461L9.87012 13.0159C9.97337 12.9531 10.1032 12.9738 10.1826 13.0588L10.2139 13.0989C10.3457 13.314 10.5026 13.5202 10.6846 13.7092C11.8098 14.8801 13.5191 15.0609 14.8252 14.259L14.8262 14.26C15.0694 14.1112 15.2994 13.926 15.5078 13.7083L15.5068 13.7073L18.7471 10.3381C20.0846 8.94472 20.085 6.68284 18.7471 5.29028C17.456 3.94588 15.3912 3.90391 14.0518 5.16431L13.9248 5.29028L13.2109 6.03247C13.127 6.11995 12.9948 6.1335 12.8965 6.07153L12.8564 6.04028C12.7575 5.94434 12.7536 5.78526 12.8486 5.68579L12.8496 5.68677L13.5635 4.94458Z" fill="currentColor" stroke="currentColor"/>
</svg>
