<svg width="16" height="16" viewBox="0 0 16 16" fill="none" xmlns="http://www.w3.org/2000/svg">
<path d="M7.96353 1.16626H8.03677C9.2711 1.16626 10.2152 1.1674 10.9469 1.26196C11.6911 1.35881 12.2411 1.55495 12.6676 1.96606H12.6686C13.0426 2.32624 13.2461 2.77899 13.3581 3.36841L13.4001 3.62915C13.4988 4.33555 13.4997 5.24571 13.4997 6.43286V12.0325C13.4997 12.7734 13.4994 13.3507 13.4342 13.7756C13.3754 14.1584 13.2581 14.457 13.0104 14.6428L12.8961 14.7151C12.5914 14.8779 12.2362 14.8555 11.8864 14.7493C11.5356 14.6428 11.1657 14.4453 10.8092 14.22V14.219C10.4516 13.993 10.0979 13.7342 9.78287 13.5012L9.78189 13.5002L9.74478 13.4739H9.74576C9.519 13.306 9.31449 13.1541 9.13931 13.0364L8.97427 12.9309C8.71291 12.773 8.52876 12.6634 8.37466 12.5901H8.37369C8.25963 12.5364 8.16832 12.5059 8.08365 12.4944L7.99966 12.4895C7.88993 12.4896 7.77874 12.5185 7.62662 12.5901H7.62564C7.54859 12.6267 7.46383 12.6724 7.36588 12.7288L7.02603 12.9309C6.82008 13.0549 6.55734 13.2495 6.25552 13.4729L6.21841 13.5002L6.21744 13.5012C5.90245 13.7341 5.54862 13.9931 5.19107 14.219L5.19009 14.22C4.83454 14.4451 4.46387 14.6428 4.11295 14.7493C3.7632 14.8554 3.40881 14.8778 3.10416 14.7151C2.77685 14.54 2.63332 14.2131 2.56607 13.7756C2.50089 13.35 2.49966 12.772 2.49966 12.0305V6.43286C2.49966 5.39389 2.50073 4.56721 2.56705 3.90356L2.59927 3.62915C2.69913 2.90993 2.90429 2.37763 3.3317 1.96606C3.75895 1.55476 4.30854 1.35784 5.0524 1.26099C5.78417 1.16638 6.72898 1.16626 7.96353 1.16626ZM2.83951 5.16138C2.83346 5.54851 2.83365 5.98333 2.83365 6.47192V11.9875C2.83365 12.7612 2.83399 13.3224 2.89615 13.7258C2.92695 13.9264 2.97072 14.0756 3.03189 14.1877C3.10263 14.3174 3.18783 14.3819 3.25845 14.4202L3.26138 14.4221C3.45315 14.5235 3.70468 14.5254 4.01724 14.4299L4.01627 14.429C4.32469 14.3354 4.66533 14.1568 5.01236 13.9377C5.35876 13.719 5.70335 13.467 6.0192 13.2336L6.02017 13.2327L6.07877 13.1887C6.36945 12.9739 6.63933 12.7751 6.85416 12.6458L6.85806 12.6428L6.87271 12.634C7.11967 12.486 7.31548 12.3683 7.48502 12.2883C7.66189 12.2048 7.82309 12.1556 7.99966 12.1555C8.17637 12.1555 8.33831 12.2048 8.51529 12.2883C8.60014 12.3284 8.69155 12.3778 8.79263 12.4358L9.12759 12.634L9.14224 12.6428L9.14615 12.6458C9.25356 12.7105 9.37492 12.7922 9.50552 12.885L9.92154 13.1887L9.98013 13.2327L9.98111 13.2336C10.2968 13.467 10.6407 13.7191 10.987 13.9377C11.2474 14.1021 11.5045 14.2446 11.7467 14.345L11.9831 14.4299C12.2953 14.5252 12.5463 14.5232 12.7379 14.4221L12.7419 14.4202C12.8124 14.3819 12.8978 14.3173 12.9684 14.1877C13.0296 14.0756 13.0734 13.9263 13.1042 13.7258C13.1663 13.3224 13.1667 12.7611 13.1667 11.9875V6.47192C13.1667 5.98333 13.1668 5.54851 13.1608 5.16138L13.1559 4.83325H2.84439L2.83951 5.16138ZM9.8942 7.23364C9.97615 7.19285 10.0758 7.22581 10.1169 7.30786C10.158 7.3901 10.1244 7.49061 10.0426 7.53149C9.49231 7.80669 8.99221 8.33052 8.59927 8.84399L8.43716 9.06274C8.23227 9.34933 8.06841 9.61583 7.95572 9.81079C7.8985 9.90973 7.81535 10.066 7.78873 10.1155L7.78384 10.1243C7.75699 10.1779 7.70372 10.2128 7.64517 10.2161H7.6442C7.5994 10.2187 7.55653 10.2032 7.52408 10.1741L7.49576 10.1409L7.3688 9.97388C7.23094 9.81406 7.06249 9.67405 6.9108 9.5647C6.80616 9.48895 6.62813 9.3813 6.57388 9.34888L6.56607 9.34399L6.55728 9.34009L6.5065 9.2981C6.47907 9.26474 6.465 9.22203 6.46841 9.17896L6.48697 9.11548C6.53015 9.0334 6.63098 9.00208 6.71158 9.04419L6.71255 9.04517C6.82498 9.10336 6.99633 9.21413 7.10709 9.29419C7.17405 9.34272 7.2484 9.3999 7.32486 9.46411L7.61978 9.71216L7.82291 9.38501C7.91867 9.23012 8.03381 9.05402 8.16568 8.86938C8.58612 8.2813 9.18955 7.58657 9.8942 7.23364ZM7.99966 1.50024C6.73874 1.50024 5.8085 1.50028 5.09537 1.59302C4.3866 1.68486 3.91717 1.86485 3.56314 2.2063C3.2105 2.54641 3.0242 2.9958 2.92935 3.67603C2.90888 3.82224 2.89294 3.97769 2.88052 4.14185L2.85318 4.50024H13.1471L13.1198 4.14185C13.1074 3.9777 13.0914 3.82223 13.071 3.67603C12.9761 2.9959 12.7897 2.54639 12.4372 2.2063C12.1274 1.90756 11.7292 1.73176 11.1598 1.6311L10.9049 1.59302C10.1917 1.50023 9.26094 1.50024 7.99966 1.50024Z" fill="currentColor" stroke="currentColor" stroke-width="0.666667"/>
</svg>
