<svg width="20" height="20" viewBox="0 0 20 20" fill="none" xmlns="http://www.w3.org/2000/svg">
<path d="M6.83728 8.34424C8.0788 7.05175 10.0948 7.0524 11.3373 8.34521V8.34424C11.5061 8.52034 11.6515 8.7101 11.7728 8.90967L11.7738 8.91064C11.8004 8.95404 11.7964 9.00849 11.7679 9.04834L11.7318 9.08252C11.6877 9.10918 11.6336 9.10583 11.5941 9.07764L11.5599 9.04053C11.4469 8.85615 11.3119 8.67932 11.1556 8.51709C10.0479 7.36448 8.27628 7.32859 7.12732 8.40967L7.01794 8.51807L4.31775 11.3267C3.17212 12.52 3.17185 14.4561 4.31775 15.6489C5.46113 16.8396 7.31395 16.8395 8.4574 15.6489L9.05115 15.0288C9.10072 14.9788 9.17983 14.9798 9.22888 15.0269C9.26582 15.0624 9.27677 15.1158 9.25916 15.1616L9.23181 15.2036L8.63708 15.8228C7.39548 17.1146 5.37961 17.1147 4.13806 15.8228C2.89828 14.533 2.89827 12.4436 4.13806 11.1538L6.83728 8.34424ZM11.3636 4.17822C12.6051 2.8857 14.6202 2.88552 15.8627 4.17822C17.1016 5.46713 17.1018 7.55632 15.8627 8.84619L13.1635 11.6558C12.9689 11.8575 12.7561 12.0284 12.5306 12.1665H12.5297C11.3859 12.87 9.90917 12.7633 8.8656 11.8491L8.66345 11.6558C8.53729 11.5235 8.42408 11.3839 8.32361 11.2378L8.22693 11.0894C8.19107 11.0304 8.20895 10.9528 8.26794 10.9165C8.31217 10.8897 8.36703 10.894 8.40662 10.9224L8.4408 10.9595C8.5537 11.1437 8.68807 11.3198 8.84412 11.4819C9.80949 12.4865 11.2772 12.6419 12.3988 11.9526C12.5554 11.8568 12.7057 11.7448 12.8461 11.6157L12.9828 11.4819L15.682 8.67334H15.683C16.8286 7.47994 16.828 5.54384 15.682 4.35107H15.683C14.5395 3.16033 12.6868 3.16033 11.5433 4.35107L10.9496 4.96924H10.9486C10.9004 5.01943 10.8206 5.02086 10.7709 4.97314C10.7219 4.92486 10.7205 4.84488 10.7679 4.79541L11.3627 4.17822H11.3636Z" fill="currentColor" stroke="currentColor"/>
</svg>
