<svg width="20" height="20" viewBox="0 0 20 20" fill="none" xmlns="http://www.w3.org/2000/svg">
<path d="M8.53674 2.81506C10.2348 1.11704 12.987 1.11739 14.6842 2.81506H14.6852C16.383 4.51225 16.3833 7.26542 14.6852 8.9635L14.652 8.99573L14.3844 9.26331L14.5699 9.59436C15.5004 11.2516 15.2601 13.3876 13.8512 14.7965L11.4635 17.1852C9.76542 18.8833 7.01225 18.883 5.31506 17.1852V17.1842C3.61739 15.487 3.61704 12.7348 5.31506 11.0367L5.61584 10.736L5.4303 10.4059C4.49966 8.74868 4.73935 6.61275 6.14807 5.20374L8.53674 2.81506ZM14.5084 2.99084C12.9082 1.39183 10.3129 1.39241 8.7135 2.99182L6.32483 5.38049C4.72534 6.97998 4.7256 9.57524 6.32483 11.1754C7.92504 12.7754 10.5203 12.7758 12.1198 11.1754L12.2916 11.0026C12.3405 10.9537 12.4205 10.9537 12.4694 11.0026C12.5184 11.0518 12.5171 11.1308 12.4694 11.1783V11.1793L12.2965 11.3512C10.5984 13.0493 7.84623 13.049 6.14905 11.3512H6.14807C6.1333 11.3364 6.12494 11.3275 6.1178 11.3199L5.75061 10.9303L5.38733 11.3219C3.89236 12.9298 3.92746 15.4441 5.49182 17.0084C7.09198 18.6076 9.68629 18.6078 11.2858 17.0084L13.6754 14.6198C15.2248 13.0704 15.273 10.5867 13.8209 8.97815L13.6754 8.82483C12.0752 7.2256 9.47998 7.22534 7.88049 8.82483L7.70764 8.99768C7.65876 9.0461 7.57966 9.04628 7.53088 8.99768C7.48165 8.94844 7.48312 8.8695 7.53088 8.8219V8.82092L7.70374 8.64807C9.40179 6.95037 12.1541 6.95051 13.8512 8.64807L13.8727 8.66956L14.2379 9.08069L14.6129 8.67834C16.108 7.07123 16.0726 4.55614 14.5084 2.99182V2.99084Z" fill="currentColor" stroke="currentColor"/>
</svg>
