<svg width="20" height="20" viewBox="0 0 20 20" fill="none" xmlns="http://www.w3.org/2000/svg">
<path d="M7.26628 4.82532C7.36212 4.69676 7.54535 4.66958 7.67546 4.76477L8.46257 5.36633C8.93394 5.73415 9.5633 6.23808 10.193 6.78528V6.78625C10.6642 7.19532 11.1399 7.63153 11.5514 8.05383L11.9391 8.46985C12.1793 8.74251 12.3871 9.00872 12.5358 9.25598L12.5368 9.25696C12.6815 9.49632 12.7936 9.75457 12.7936 10.0001C12.7936 10.2465 12.6816 10.5038 12.5368 10.7433L12.5358 10.7443C12.4243 10.9297 12.2797 11.1258 12.113 11.3273L11.9391 11.5304C11.4576 12.0749 10.8212 12.6686 10.193 13.214C9.56314 13.7613 8.93402 14.266 8.46257 14.6339C8.22804 14.8164 7.81346 15.128 7.67155 15.2355C7.54238 15.3283 7.36145 15.3018 7.26628 15.173H7.26726C7.1718 15.0434 7.19878 14.861 7.32878 14.7648L7.33171 14.7628C7.46697 14.661 7.86947 14.3565 8.1032 14.1749V14.174C8.45292 13.901 8.88946 13.5521 9.34734 13.1681L9.81023 12.7745C10.4321 12.2349 11.0457 11.6599 11.5016 11.1437C11.73 10.8853 11.9125 10.6488 12.0368 10.4435L12.0378 10.4425C12.0992 10.3405 12.1387 10.2549 12.1637 10.1906C12.1762 10.1585 12.1849 10.1314 12.1911 10.1105C12.1941 10.1003 12.1961 10.0915 12.1979 10.0841C12.1989 10.0803 12.2002 10.0764 12.2009 10.0734C12.2012 10.072 12.2016 10.0707 12.2018 10.0695V10.0665H12.2028V10.0656L12.2165 9.99719L12.2018 9.92883V9.92688L12.2009 9.92493C12.2006 9.9237 12.2002 9.92241 12.1999 9.92102C12.1992 9.91804 12.1989 9.914 12.1979 9.91028C12.196 9.90291 12.1932 9.89407 12.1901 9.88391C12.1839 9.86332 12.1752 9.83713 12.1628 9.80579C12.1378 9.74259 12.0988 9.65808 12.0378 9.55676H12.0368C11.9124 9.35139 11.7301 9.11411 11.5016 8.85559C11.0456 8.33938 10.4317 7.7658 9.81023 7.22571L9.34734 6.83118C8.88953 6.44739 8.4535 6.09863 8.10417 5.82532H8.1032C7.86952 5.64376 7.466 5.33845 7.33269 5.23743L7.32878 5.2345L7.28484 5.19543C7.1938 5.09496 7.18352 4.93999 7.26726 4.82629L7.26628 4.82532Z" fill="currentColor" stroke="currentColor" stroke-width="0.666667"/>
</svg>
