<svg width="24" height="24" viewBox="0 0 24 24" fill="none" xmlns="http://www.w3.org/2000/svg">
<path d="M12 1.75C17.6539 1.75 22.25 6.34614 22.25 12C22.25 17.6539 17.6539 22.25 12 22.25C6.34614 22.25 1.75 17.6539 1.75 12C1.75 6.34614 6.34614 1.75 12 1.75ZM12 2.25C6.62386 2.25 2.25 6.62386 2.25 12C2.25 17.3761 6.62386 21.75 12 21.75C17.3761 21.75 21.75 17.3761 21.75 12C21.75 6.62386 17.3761 2.25 12 2.25ZM12 5.75C13.7939 5.75 15.25 7.20614 15.25 9C15.25 9.97009 14.8245 10.841 14.1484 11.4375L13.583 11.9365L14.2627 12.2637C16.0292 13.1116 17.25 14.9173 17.25 17C17.25 17.1339 17.1339 17.25 17 17.25C16.8661 17.25 16.75 17.1339 16.75 17C16.75 14.3839 14.6161 12.25 12 12.25C9.38386 12.25 7.25 14.3839 7.25 17C7.25 17.1339 7.13386 17.25 7 17.25C6.86614 17.25 6.75 17.1339 6.75 17C6.75 14.9173 7.97082 13.1116 9.7373 12.2637L10.417 11.9365L9.85156 11.4375C9.17549 10.841 8.75 9.9701 8.75 9C8.75 7.20614 10.2061 5.75 12 5.75ZM12 6.25C10.4839 6.25 9.25 7.48386 9.25 9C9.25 10.5161 10.4839 11.75 12 11.75C13.5161 11.75 14.75 10.5161 14.75 9C14.75 7.48386 13.5161 6.25 12 6.25Z" fill="currentColor" stroke="currentColor"/>
</svg>
