<svg width="24" height="24" viewBox="0 0 24 24" fill="none" xmlns="http://www.w3.org/2000/svg">
<path d="M9.09303 3.28662C11.0375 3.23784 12.963 3.23783 14.9075 3.28662L14.9114 3.2876H14.969C16.3141 3.322 17.3876 3.35017 18.2629 3.46631L18.6272 3.52197C19.59 3.68929 20.3203 3.99957 20.9319 4.61377C21.5437 5.22815 21.8519 5.94854 22.0159 6.89111C22.1359 7.58058 22.18 8.40178 22.2083 9.40088L22.2327 10.4614L22.2337 10.5171V10.519C22.2545 11.5089 22.2545 12.492 22.2337 13.4819V13.4839L22.2327 13.5396C22.2004 15.0368 22.1759 16.1906 22.0159 17.1099C21.852 18.0522 21.5435 18.7719 20.9319 19.3862C20.3967 19.9237 19.7708 20.2287 18.9778 20.4087L18.6272 20.479C17.9236 20.6021 17.0811 20.6505 16.0549 20.6831L14.9651 20.7124L14.9114 20.7134H14.9075C12.963 20.7622 11.0375 20.7622 9.09303 20.7134H9.08814L9.03345 20.7124H9.03443C7.49583 20.6741 6.31144 20.6431 5.3733 20.479H5.37232C4.40965 20.3117 3.68018 20.0004 3.06861 19.3862C2.4569 18.7719 2.14857 18.0523 1.98463 17.1099C1.86461 16.4205 1.82051 15.5991 1.79224 14.6001L1.76685 13.5396L1.76588 13.4839V13.4819L1.75416 12.7407C1.74633 12.0002 1.75024 11.2616 1.76588 10.519V10.5171L1.76685 10.4614C1.79916 8.96419 1.8246 7.81042 1.98463 6.89111C2.14855 5.94854 2.45684 5.22815 3.06861 4.61377C3.68012 3.9998 4.40982 3.68928 5.37232 3.52197H5.3733C6.31041 3.35801 7.49272 3.3269 9.02955 3.2876L9.03053 3.28857L9.08814 3.2876L9.09303 3.28662ZM2.42506 7.31592C2.3178 8.14177 2.29466 9.174 2.26588 10.5298C2.24473 11.5119 2.24472 12.4891 2.26588 13.4712C2.29446 14.8182 2.31673 15.8498 2.42506 16.6802L2.47779 17.0239C2.62894 17.8977 2.9026 18.5116 3.42115 19.0327L3.42213 19.0337C3.94089 19.5536 4.56347 19.831 5.45826 19.9868C6.3642 20.1446 7.52395 20.1747 9.10572 20.2144C11.042 20.2626 12.9585 20.2626 14.8948 20.2144C16.4765 20.1747 17.6363 20.1446 18.5422 19.9868L18.5413 19.9858C19.4374 19.83 20.0597 19.5536 20.5784 19.0337V19.0327C21.0971 18.5115 21.3715 17.8979 21.5227 17.0239C21.6767 16.138 21.701 15.0105 21.7337 13.4712C21.7548 12.4891 21.7548 11.5119 21.7337 10.5298C21.7049 9.17506 21.6817 8.14181 21.5745 7.31689L21.4788 6.57959L20.8323 6.9458L15.2102 10.1313C13.9306 10.8567 12.9759 11.2465 12.0012 11.2466C11.0254 11.2466 10.07 10.8568 8.79029 10.1313L3.16724 6.94482L2.52076 6.57861L2.42506 7.31592ZM14.8948 3.78662C12.9585 3.73842 11.042 3.73842 9.10572 3.78662C7.524 3.82624 6.36419 3.85538 5.45826 4.01318C4.56335 4.16901 3.94093 4.44726 3.42213 4.96729H3.42115C3.21694 5.17267 3.047 5.39727 2.90553 5.65381L2.66627 6.08643L3.09693 6.33057L9.03638 9.6958V9.69678C10.3046 10.4147 11.1627 10.7466 12.0012 10.7466C12.8387 10.7465 13.6962 10.4145 14.9641 9.69678V9.6958L20.9036 6.33154L21.3323 6.08838L21.095 5.65576C20.9533 5.39765 20.7827 5.17275 20.5784 4.96729L20.3782 4.78369C19.8996 4.3801 19.3262 4.14958 18.5422 4.01318C17.6363 3.85536 16.4765 3.82624 14.8948 3.78662Z" fill="currentColor" stroke="currentColor"/>
</svg>
