<svg width="24" height="24" viewBox="0 0 24 24" fill="none" xmlns="http://www.w3.org/2000/svg">
<path d="M12.0952 8.24219C12.8193 8.24222 13.4337 8.41372 13.8872 8.69727C14.4569 9.0539 14.7505 9.58197 14.7505 10.1992C14.7505 10.4788 14.7766 10.7897 14.9702 11.0352C15.1646 11.2815 15.4521 11.3605 15.6245 11.4082L15.6294 11.4092C16.3029 11.5889 16.8814 11.8593 17.4546 12.2656L19.4048 13.6562L19.4116 13.6611C20.3351 14.3228 20.7545 14.6382 21.0054 15.1621C21.2402 15.6528 21.2505 16.151 21.2505 17.3203C21.2505 18.3496 21.2491 19.0968 21.1646 19.6914C21.0826 20.2679 20.9271 20.6537 20.6479 20.9736L20.647 20.9746C20.3487 21.3192 19.8638 21.525 19.2388 21.6338C18.6179 21.7418 17.9394 21.7418 17.3208 21.7402H6.90869L6.58447 21.7422C6.46013 21.7432 6.33344 21.7441 6.20264 21.7441H6.20166C5.64976 21.7441 5.07734 21.7234 4.56104 21.6084C4.04447 21.4933 3.63094 21.2948 3.35205 20.9746C3.07273 20.6541 2.91743 20.2681 2.83545 19.6914C2.75094 19.0967 2.75049 18.3496 2.75049 17.3203C2.75049 16.1508 2.76031 15.6522 2.99463 15.1611L2.99365 15.1602C3.24551 14.6352 3.66744 14.3194 4.59326 13.6572L6.54346 12.2656C7.11732 11.8586 7.69613 11.5889 8.37549 11.4082L8.37939 11.4072C8.55011 11.3603 8.83678 11.2822 9.03076 11.0352C9.22306 10.7902 9.25048 10.4799 9.25049 10.2002C9.25049 9.62085 9.55303 9.0923 10.1899 8.71582C10.6944 8.41806 11.3702 8.24219 12.0952 8.24219ZM12.0952 8.74316C11.5924 8.74316 11.0555 8.84534 10.6265 9.04785C10.2278 9.23602 9.75049 9.60234 9.75049 10.2002C9.75046 10.7083 9.63598 11.0633 9.44971 11.3145C9.26527 11.5631 8.97063 11.7628 8.50928 11.8896C7.88834 12.0548 7.3546 12.304 6.83447 12.6729L6.8335 12.6738L4.88721 14.0615L4.67725 14.2109V14.2158C4.36192 14.4433 4.12223 14.6203 3.94385 14.7734C3.72085 14.9649 3.55744 15.1461 3.4458 15.3789C3.33502 15.61 3.29247 15.8629 3.27197 16.1543C3.25159 16.4442 3.25146 16.8225 3.25146 17.3213C3.25146 18.1464 3.25034 18.8205 3.29736 19.3379C3.34264 19.8359 3.43884 20.3126 3.72998 20.6465C3.91311 20.8561 4.16753 20.9748 4.39307 21.0479C4.62719 21.1236 4.88906 21.1684 5.14307 21.1963C5.64797 21.2516 6.19664 21.2461 6.58252 21.2422V21.2432L6.5835 21.2422C6.5848 21.2422 6.5861 21.2422 6.5874 21.2422C6.64311 21.2422 6.70278 21.2423 6.76221 21.2412H17.312V21.2402C17.6682 21.2417 18.2454 21.2453 18.7837 21.1904C19.053 21.163 19.3307 21.119 19.5757 21.0469C19.8043 20.9795 20.0828 20.8657 20.272 20.6465L20.271 20.6455C20.561 20.311 20.6583 19.8357 20.7036 19.3379C20.7508 18.82 20.7505 18.1459 20.7505 17.3213C20.7505 16.8224 20.7487 16.4443 20.728 16.1543C20.7072 15.8626 20.6648 15.6097 20.5542 15.3789L20.5532 15.3779C20.4416 15.1461 20.279 14.9648 20.0562 14.7734C19.8402 14.588 19.5353 14.3664 19.1138 14.0645L19.1128 14.0635L17.1646 12.6748L17.1626 12.6738C16.6452 12.3073 16.113 12.0569 15.4985 11.8936H15.4995C15.0334 11.7657 14.7367 11.5648 14.5513 11.3154C14.3646 11.0641 14.2505 10.7092 14.2505 10.2012C14.2505 10.0733 14.2354 9.88221 14.1372 9.67578C14.0622 9.5182 13.9488 9.37238 13.7925 9.24414L13.6216 9.12207L13.4604 9.03223C13.0709 8.83701 12.5811 8.74319 12.0952 8.74316ZM12.0005 14.2422C13.2401 14.2425 14.2505 15.2525 14.2505 16.4922C14.2504 17.7318 13.2401 18.7419 12.0005 18.7422C10.7607 18.7422 9.75059 17.732 9.75049 16.4922C9.75049 15.2523 10.7606 14.2422 12.0005 14.2422ZM12.0005 14.7422C11.0353 14.7422 10.2505 15.527 10.2505 16.4922C10.2506 17.4572 11.0354 18.2422 12.0005 18.2422C12.9653 18.2419 13.7504 17.4571 13.7505 16.4922C13.7505 15.5272 12.9654 14.7425 12.0005 14.7422ZM6.89209 2.9541C10.1845 2.01564 13.8135 2.01564 17.106 2.9541H17.1079C18.1749 3.25352 19.0604 3.62779 19.9331 4.15137L20.3062 4.38477C21.663 5.27023 22.4106 6.90386 22.2183 8.67578L22.2173 8.68262C22.1808 9.06966 22.0039 9.36577 21.7417 9.5459L21.7407 9.54688C21.5573 9.67333 21.3384 9.74118 21.0972 9.74121C20.9742 9.74121 20.8432 9.72354 20.7075 9.68652L20.7026 9.68555L19.9731 9.48828C19.7419 9.42332 19.5211 9.35886 19.3071 9.29395L19.3042 9.29297L19.0142 9.19922C18.3792 8.97583 18.0234 8.71523 17.7964 8.41406C17.562 8.10303 17.423 7.69554 17.3228 7.09668L17.2827 6.82812L16.8589 3.72168L16.813 3.3877L16.4858 3.30469L15.937 3.17383C13.1798 2.56644 10.2428 2.61051 7.51221 3.30469L7.18506 3.3877L7.13916 3.72168L6.71631 6.82812C6.61333 7.57712 6.47165 8.05846 6.20361 8.41406C5.94362 8.75886 5.51383 9.05089 4.68994 9.29492L4.68604 9.2959C4.26465 9.42457 3.80929 9.55214 3.29834 9.68457L3.2915 9.68652C2.88888 9.79709 2.52815 9.73377 2.25537 9.5459C1.99403 9.36581 1.81717 9.07012 1.77979 8.68262L1.77881 8.67578C1.59941 7.01527 2.24571 5.47525 3.4458 4.56055L3.69287 4.38574C4.69012 3.7369 5.6714 3.29612 6.89014 2.9541H6.89209ZM5.87256 3.81836C5.19732 4.08238 4.58214 4.40228 3.96631 4.80273L3.96533 4.80371C2.74711 5.59882 2.12331 7.05665 2.2749 8.58301L2.27588 8.60938C2.27603 8.61185 2.27664 8.61444 2.27686 8.61719C2.27717 8.62012 2.27751 8.62305 2.27783 8.62598V8.625C2.27804 8.62722 2.27856 8.62948 2.27881 8.63184V8.63281C2.28629 8.70923 2.30173 8.78742 2.33057 8.86133C2.34642 8.90194 2.38191 8.9818 2.45264 9.05762L2.53564 9.13086L2.54346 9.13574C2.67488 9.22486 2.81533 9.23728 2.88428 9.23926C2.97108 9.24175 3.06021 9.22873 3.14795 9.20605L3.14893 9.20703L3.16162 9.2041L3.1665 9.20312C3.66961 9.07205 4.12004 8.9453 4.54346 8.81641C5.03844 8.66956 5.48058 8.51486 5.7749 8.14941C5.98851 7.88418 6.09011 7.54863 6.15967 7.16211L6.22119 6.75977L6.54932 4.35254L6.18994 4.30273L5.87256 3.81836ZM17.4448 4.31836L17.4497 4.35156L17.7788 6.76074C17.8552 7.31725 17.9399 7.79548 18.2231 8.14844C18.5158 8.51301 18.9557 8.66692 19.4468 8.8125V8.81348C19.877 8.94499 20.3288 9.07093 20.8325 9.20215L20.8599 9.20801V9.20605C20.9443 9.22776 21.0302 9.24166 21.1147 9.23926C21.1878 9.23716 21.3284 9.22303 21.4595 9.13281L21.4683 9.12695L21.4761 9.12109C21.5947 9.03216 21.6469 8.91499 21.6685 8.85938C21.6849 8.81679 21.6957 8.77202 21.7046 8.72754L21.7124 8.71387L21.7222 8.625C21.8899 7.08161 21.2629 5.60505 20.0337 4.80176L20.0327 4.80078C19.4177 4.40023 18.8026 4.08039 18.1274 3.81641L17.4448 3.5498V4.31836Z" fill="currentColor" stroke="currentColor"/>
</svg>
