<svg width="16" height="16" viewBox="0 0 16 16" fill="none" xmlns="http://www.w3.org/2000/svg">
<path d="M11.8652 5.90125C11.9204 5.82686 12.0248 5.81108 12.0986 5.86511C12.1721 5.91939 12.1881 6.02285 12.1348 6.09753C12.0491 6.21125 11.7995 6.54147 11.6543 6.72742C11.3604 7.10404 10.9573 7.60652 10.5205 8.10925C10.0848 8.61107 9.61203 9.11828 9.17969 9.49988C9.01728 9.64343 8.85855 9.77101 8.70801 9.87488L8.56055 9.97058C8.37212 10.0845 8.17798 10.1668 8 10.1669C7.82129 10.1669 7.62771 10.0842 7.44043 9.97058H7.43848C7.24541 9.85448 7.03546 9.69062 6.82031 9.49988H6.81934C6.38698 9.11827 5.91423 8.61109 5.47852 8.10925C5.04177 7.60663 4.63954 7.10398 4.3457 6.72742H4.34473L3.86426 6.09656C3.81217 6.02315 3.82771 5.92051 3.90039 5.86609C3.9752 5.81124 4.08007 5.82721 4.13477 5.90125L4.13672 5.90417C4.21843 6.01267 4.46193 6.3341 4.60742 6.52136V6.52234C4.75315 6.70903 4.92604 6.92687 5.11621 7.16003L5.73047 7.8905C6.16276 8.38867 6.62416 8.88178 7.04004 9.24988L7.04102 9.25085C7.24906 9.43401 7.44142 9.58314 7.61035 9.68542H7.61133C7.69581 9.73611 7.76752 9.76955 7.82227 9.79089C7.84961 9.80155 7.87321 9.80885 7.8916 9.81433C7.90061 9.81701 7.90837 9.81947 7.91504 9.82117C7.91842 9.82203 7.92205 9.82345 7.9248 9.8241C7.92601 9.82438 7.92763 9.82386 7.92871 9.8241L7.92969 9.82507H7.93164L8.00293 9.8407L8.07422 9.82507V9.8241H8.07715C8.07832 9.82382 8.07974 9.82344 8.08105 9.82312C8.08375 9.82246 8.08658 9.82105 8.08984 9.82019C8.09645 9.81845 8.10442 9.81705 8.11328 9.81433C8.13129 9.80879 8.15399 9.80055 8.18066 9.78992C8.20729 9.7793 8.23804 9.76596 8.27246 9.7489L8.3877 9.68542C8.55771 9.58295 8.75097 9.43399 8.95898 9.25085V9.24988C9.27102 8.97372 9.60891 8.62773 9.94043 8.2616L10.2686 7.8905C10.7003 7.39333 11.1001 6.89577 11.3916 6.52234C11.5382 6.33452 11.7821 6.01093 11.8623 5.90515L11.8652 5.90125Z" fill="currentColor" stroke="currentColor" stroke-width="0.666667"/>
</svg>
